<svg xmlns="http://www.w3.org/2000/svg" width="157" height="188" viewBox="0 0 157 188" fill="none">
  <path d="M40.6887 81.1768L0.261719 157.957L36.9737 154.538L54.7414 187.105L95.1684 110.325L40.6887 81.1768Z" fill="#E95454"/>
  <path d="M45.3193 164.749C45.8276 163.535 45.8598 162.172 45.4096 160.936C44.9594 159.699 44.0603 158.68 42.8939 158.086L40.5677 156.837C39.4311 156.187 38.5941 155.111 38.2376 153.844C37.8812 152.576 38.0338 151.218 38.6626 150.063C39.2914 148.908 40.3458 148.049 41.5979 147.671C42.8501 147.294 44.1993 147.428 45.3541 148.045L51.929 151.563C52.4127 151.822 52.9425 151.982 53.4877 152.033C54.0329 152.085 54.5829 152.027 55.1058 151.863C55.6288 151.699 56.1144 151.433 56.5347 151.079C56.955 150.725 57.3017 150.291 57.5547 149.801L57.7164 149.486C57.999 149.025 58.1845 148.51 58.2614 147.973C58.3382 147.436 58.3048 146.889 58.1631 146.366C58.0214 145.843 57.7745 145.355 57.4378 144.932C57.101 144.509 56.6816 144.161 56.2056 143.908L36.5392 133.389C35.3695 132.796 34.4661 131.778 34.0108 130.541C33.5554 129.304 33.5819 127.938 34.085 126.72C34.3716 126.103 34.7795 125.551 35.2841 125.098C35.7886 124.645 36.3792 124.3 37.0201 124.084C37.6609 123.868 38.3386 123.786 39.0121 123.842C39.6855 123.898 40.3406 124.091 40.9377 124.41L59.1806 134.171C60.1613 134.691 61.3062 134.799 62.3655 134.471C63.4248 134.143 64.3125 133.406 64.835 132.421L64.9391 132.153L64.9679 132.095C65.2436 131.583 65.4158 131.021 65.4745 130.442C65.5332 129.863 65.4773 129.277 65.3099 128.72C65.1425 128.163 64.867 127.644 64.4994 127.195C64.1318 126.746 63.6794 126.375 63.1684 126.103L52.9359 120.63C51.7619 120.034 50.8568 119.01 50.4043 117.765C49.9519 116.521 49.9859 115.15 50.4996 113.93C50.7884 113.315 51.1975 112.765 51.7024 112.314C52.2072 111.862 52.7974 111.518 53.4375 111.303C54.0776 111.087 54.7543 111.004 55.4271 111.058C56.0998 111.113 56.7547 111.304 57.3523 111.62L68.6552 117.67C69.1575 117.929 69.7062 118.083 70.2688 118.124C70.8314 118.166 71.3965 118.093 71.9307 117.91C72.4649 117.727 72.9573 117.438 73.3788 117.061C73.8004 116.683 74.1425 116.223 74.3849 115.71C74.4041 115.671 74.4233 115.632 74.4425 115.593C74.729 115.103 74.9149 114.56 74.9893 113.996C75.0637 113.432 75.025 112.859 74.8755 112.311C74.726 111.762 74.4687 111.249 74.119 110.803C73.7692 110.357 73.3341 109.986 72.8394 109.712L60.6447 103.189C59.4826 102.593 58.5868 101.577 58.1369 100.343C57.6871 99.1099 57.7165 97.7506 58.2193 96.538C58.5059 95.9212 58.9139 95.3694 59.4184 94.9163C59.923 94.4632 60.5136 94.1181 61.1544 93.9021C61.7953 93.6861 62.473 93.6036 63.1464 93.6596C63.8199 93.7156 64.475 93.909 65.0721 94.228L95.1564 110.328L54.7295 187.108L43.5883 166.694C44.3335 166.221 44.933 165.547 45.3193 164.749Z" fill="#ED6362"/>
  <path d="M116.312 81.1768L156.739 157.957L120.028 154.538L102.26 187.105L61.832 110.329L116.312 81.1768Z" fill="#ED6362"/>
  <path d="M111.681 164.749C111.173 163.535 111.14 162.172 111.591 160.935C112.041 159.699 112.94 158.68 114.106 158.086L116.433 156.837C117.569 156.186 118.406 155.111 118.763 153.844C119.119 152.576 118.966 151.218 118.338 150.063C117.709 148.908 116.654 148.049 115.402 147.671C114.15 147.294 112.801 147.428 111.646 148.045L105.073 151.563C104.589 151.822 104.06 151.981 103.515 152.033C102.969 152.084 102.419 152.027 101.896 151.863C101.373 151.699 100.888 151.432 100.468 151.079C100.047 150.725 99.7006 150.29 99.4476 149.801L99.2859 149.486C99.0034 149.024 98.818 148.509 98.7412 147.973C98.6644 147.436 98.6979 146.889 98.8396 146.366C98.9813 145.843 99.2281 145.355 99.5648 144.932C99.9014 144.509 100.321 144.161 100.797 143.908L120.469 133.383C121.639 132.79 122.542 131.772 122.997 130.535C123.453 129.298 123.426 127.932 122.923 126.714C122.637 126.097 122.229 125.545 121.724 125.092C121.22 124.639 120.629 124.294 119.988 124.078C119.347 123.862 118.67 123.779 117.996 123.835C117.323 123.891 116.668 124.085 116.071 124.404L97.8276 134.165C96.8468 134.685 95.7019 134.792 94.6427 134.465C93.5834 134.137 92.6957 133.4 92.1732 132.415L92.0691 132.147L92.0403 132.089C91.7646 131.577 91.5924 131.015 91.5337 130.436C91.4749 129.857 91.5309 129.271 91.6983 128.714C91.8657 128.157 92.1412 127.638 92.5088 127.189C92.8764 126.74 93.3288 126.369 93.8398 126.097L104.072 120.624C105.246 120.027 106.151 119.003 106.603 117.759C107.056 116.515 107.022 115.144 106.509 113.924C106.22 113.309 105.811 112.759 105.306 112.308C104.801 111.856 104.211 111.512 103.571 111.296C102.931 111.081 102.254 110.998 101.581 111.052C100.908 111.107 100.254 111.298 99.6559 111.614L88.3411 117.676C87.8388 117.935 87.2901 118.089 86.7275 118.13C86.1648 118.171 85.5998 118.099 85.0656 117.916C84.5314 117.733 84.039 117.444 83.6175 117.066C83.1959 116.689 82.8538 116.229 82.6113 115.716C82.5922 115.677 82.573 115.638 82.5538 115.599C82.2673 115.109 82.0813 114.566 82.007 114.002C81.9326 113.438 81.9713 112.865 82.1208 112.316C82.2703 111.768 82.5276 111.255 82.8773 110.809C83.2271 110.363 83.6622 109.992 84.1569 109.718L96.3515 103.195C97.5137 102.599 98.4095 101.583 98.8593 100.349C99.3092 99.1158 99.2797 97.7564 98.777 96.5439C98.4904 95.927 98.0824 95.3753 97.5779 94.9221C97.0733 94.469 96.4827 94.124 95.8419 93.908C95.201 93.692 94.5233 93.6094 93.8498 93.6655C93.1764 93.7215 92.5213 93.9149 91.9242 94.2339L61.8398 110.334L102.267 187.114L113.406 166.697C112.665 166.218 112.069 165.545 111.681 164.749Z" fill="#E95454"/>
  <path d="M78.5014 136.686C115.807 136.686 146.05 106.2 146.05 68.593C146.05 30.9863 115.807 0.5 78.5014 0.5C41.1955 0.5 10.9531 30.9863 10.9531 68.593C10.9531 106.2 41.1955 136.686 78.5014 136.686Z" fill="#FFCC5B"/>
  <path d="M87.6613 60.7813H44.8555C43.2502 60.7749 41.7124 60.1293 40.5773 58.985C39.4421 57.8407 38.8016 56.2905 38.7954 54.6723L38.842 54.2523V54.1593C38.8345 53.316 38.993 52.4796 39.3083 51.6984C39.6236 50.9173 40.0894 50.207 40.6788 49.6085C41.2683 49.0101 41.9696 48.5354 42.7422 48.212C43.5147 47.8885 44.3433 47.7228 45.1799 47.7243H74.8466C76.7507 47.7659 78.5993 47.0762 80.0176 45.795C81.436 44.5137 82.3181 42.7367 82.485 40.8243C82.5301 39.8392 82.3771 38.855 82.0351 37.9311C81.6931 37.0072 81.1693 36.1625 80.4951 35.448C79.8209 34.7334 79.0103 34.1637 78.1121 33.7731C77.2138 33.3826 76.2465 33.1792 75.2682 33.1753H43.8367C43.0193 33.162 42.2127 32.9837 41.4648 32.6509C40.7169 32.3182 40.0427 31.8376 39.4821 31.2377C38.9215 30.6379 38.4859 29.9308 38.2009 29.1583C37.916 28.3858 37.7876 27.5636 37.8232 26.7403V26.5533C37.7874 25.7299 37.9158 24.9076 38.2006 24.1351C38.4855 23.3625 38.9211 22.6554 39.4818 22.0555C40.0424 21.4556 40.7166 20.975 41.4646 20.6423C42.2126 20.3096 43.0192 20.1314 43.8367 20.1183H76.7225C78.612 20.1518 80.4441 19.4638 81.8514 18.1924C83.2587 16.921 84.1371 15.1602 84.3103 13.2633C84.3592 12.2772 84.2088 11.2915 83.8683 10.3658C83.5277 9.44021 83.004 8.59402 82.3291 7.87865C81.6542 7.16329 80.842 6.59368 79.942 6.20442C79.042 5.81517 78.0729 5.61438 77.0935 5.61426H53.0107C40.6264 10.7458 30.0346 19.4723 22.5809 30.6853C15.1271 41.8982 11.1478 55.0916 11.1484 68.5893C11.1491 82.087 15.1296 95.2799 22.5844 106.492C30.0392 117.704 40.6318 126.43 53.0167 131.56H83.5931C85.4826 131.594 87.3147 130.906 88.722 129.634C90.1293 128.363 91.0077 126.602 91.1809 124.705C91.2296 123.72 91.079 122.734 90.7382 121.809C90.3975 120.884 89.8737 120.038 89.1987 119.323C88.5238 118.609 87.7117 118.039 86.8118 117.651C85.9119 117.262 84.9431 117.062 83.9641 117.062L49.1806 117.056C48.2024 117.056 47.2345 116.856 46.3359 116.466C45.4372 116.077 44.6268 115.507 43.9541 114.791C43.2814 114.075 42.7605 113.228 42.4233 112.303C42.086 111.377 41.9395 110.392 41.9926 109.407C42.1603 107.506 43.0375 105.74 44.447 104.465C45.8564 103.191 47.6932 102.503 49.5863 102.54H63.0716C64.9723 102.497 66.7791 101.698 68.0983 100.318C69.4175 98.9381 70.1423 97.0885 70.1148 95.1721C70.0874 93.2558 69.3098 91.428 67.9516 90.0869C66.5933 88.7459 64.7644 88.0002 62.8633 88.0123H42.4191C41.6254 88.0126 40.8395 87.8544 40.1067 87.5469C39.374 87.2394 38.7089 86.7887 38.1498 86.2207C37.5907 85.6528 37.1487 84.9789 36.8494 84.2378C36.55 83.4968 36.3992 82.7034 36.4056 81.9033V81.3903C36.3552 80.6064 36.4651 79.8204 36.7283 79.081C36.9915 78.3417 37.4025 77.6647 37.9359 77.0919C38.4692 76.5192 39.1135 76.063 39.8289 75.7516C40.5443 75.4401 41.3155 75.28 42.0948 75.2813H87.2466C89.1439 75.3247 90.987 74.6416 92.4045 73.3695C93.8219 72.0975 94.7083 70.331 94.885 68.4263C94.9332 67.44 94.7819 66.4543 94.4406 65.5288C94.0992 64.6032 93.5748 63.7573 92.8993 63.0424C92.2237 62.3274 91.411 61.7583 90.5106 61.3696C89.6102 60.9809 88.6408 60.7807 87.6613 60.7813Z" fill="#FDBC4B"/>
  <path d="M78.4982 117.193C68.9632 117.192 59.6427 114.341 51.7152 109C43.7876 103.659 37.6092 96.068 33.9611 87.1874C30.3131 78.3069 29.3592 68.5352 31.2201 59.1081C33.081 49.681 37.6731 41.0219 44.4158 34.2257C51.1585 27.4294 59.7489 22.8013 69.1008 20.9266C78.4527 19.0518 88.1461 20.0146 96.9552 23.6932C105.764 27.3718 113.293 33.601 118.591 41.5931C123.888 49.5852 126.715 58.9813 126.715 68.5932C126.699 81.4786 121.613 93.8315 112.574 102.942C103.535 112.053 91.2806 117.178 78.4982 117.193Z" fill="#FFDB70"/>
  <path opacity="0.2" d="M126.716 68.5928C126.695 56.196 121.979 44.2752 113.53 35.2669C105.082 26.2585 93.5394 20.8429 81.2623 20.1268H76.7715C75.3307 20.102 73.9337 20.6269 72.8605 21.5963C71.7873 22.5658 71.1171 23.9083 70.9842 25.3548C70.9474 26.1067 71.0624 26.8583 71.3223 27.564C71.5823 28.2697 71.9816 28.9148 72.4962 29.4603C73.0108 30.0058 73.63 30.4403 74.3161 30.7374C75.0022 31.0345 75.7411 31.1881 76.4878 31.1888L103.019 31.1948C103.765 31.1944 104.503 31.3473 105.189 31.6443C105.874 31.9414 106.492 32.3762 107.005 32.9223C107.518 33.4684 107.915 34.1142 108.172 34.8203C108.429 35.5264 108.541 36.2779 108.5 37.0288C108.372 38.4795 107.703 39.8274 106.628 40.7999C105.552 41.7724 104.151 42.2971 102.706 42.2678H92.4243C90.9848 42.3152 89.6212 42.9303 88.6269 43.9808C87.6326 45.0312 87.0871 46.4331 87.1076 47.8849C87.1282 49.3367 87.7131 50.7223 88.7367 51.7437C89.7603 52.7652 91.1407 53.3408 92.581 53.3468H108.173C108.778 53.3467 109.377 53.4673 109.936 53.7016C110.494 53.936 111.001 54.2795 111.427 54.7123C111.853 55.1452 112.19 55.6588 112.419 56.2235C112.647 56.7883 112.762 57.393 112.757 58.0028V58.3878C112.796 58.9857 112.712 59.5852 112.511 60.149C112.31 60.7129 111.996 61.2291 111.589 61.6657C111.182 62.1023 110.691 62.4499 110.145 62.687C109.599 62.924 109.011 63.0455 108.416 63.0438H73.985C72.5388 63.0124 71.1345 63.5341 70.0544 64.504C68.9743 65.4739 68.2985 66.8201 68.163 68.2718C68.1262 69.0237 68.2412 69.7752 68.5011 70.481C68.761 71.1867 69.1604 71.8318 69.675 72.3773C70.1896 72.9228 70.8087 73.3573 71.4948 73.6544C72.181 73.9515 72.9198 74.1051 73.6666 74.1058H106.309C107.533 74.1103 108.705 74.6023 109.57 75.4745C110.436 76.3467 110.924 77.5283 110.928 78.7618L110.893 79.0828V79.1528C110.899 79.7958 110.778 80.4334 110.537 81.0289C110.297 81.6244 109.941 82.166 109.492 82.6223C109.042 83.0785 108.508 83.4405 107.919 83.6873C107.33 83.934 106.698 84.0606 106.06 84.0598H83.4298C81.9783 84.0296 80.5696 84.5562 79.4887 85.5333C78.4078 86.5104 77.7355 87.865 77.6078 89.3228C77.5738 90.074 77.6908 90.8243 77.9518 91.5288C78.2127 92.2333 78.6122 92.8773 79.1262 93.4222C79.6403 93.9671 80.2583 94.4016 80.9431 94.6997C81.6279 94.9978 82.3655 95.1533 83.1114 95.1568H107.078C107.701 95.1668 108.316 95.3026 108.887 95.5564C109.457 95.8101 109.971 96.1765 110.399 96.634C110.826 97.0915 111.158 97.6308 111.375 98.2199C111.592 98.809 111.69 99.436 111.662 100.064V100.204C111.69 100.832 111.592 101.459 111.375 102.048C111.158 102.637 110.826 103.176 110.399 103.634C109.971 104.091 109.457 104.458 108.887 104.711C108.316 104.965 107.701 105.101 107.078 105.111H82.0004C80.5595 105.086 79.1625 105.611 78.0893 106.58C77.0161 107.55 76.3459 108.892 76.213 110.339C76.1757 111.091 76.2903 111.843 76.55 112.549C76.8097 113.255 77.209 113.9 77.7238 114.446C78.2385 114.991 78.8578 115.426 79.5442 115.723C80.2306 116.019 80.9697 116.173 81.7166 116.173H88.3323C99.1724 113.881 108.902 107.903 115.89 99.241C122.878 90.5786 126.7 79.758 126.716 68.5928Z" fill="white"/>
  <path d="M112.161 57.8291H88.7096L81.4581 35.3431C81.2545 34.7133 80.8584 34.1646 80.3266 33.7754C79.7949 33.3863 79.1546 33.1768 78.4975 33.1768C77.8404 33.1768 77.2001 33.3863 76.6683 33.7754C76.1365 34.1646 75.7405 34.7133 75.5368 35.3431L68.2952 57.8291H44.8394C44.182 57.8291 43.5414 58.0389 43.0096 58.4285C42.4778 58.8181 42.0819 59.3674 41.8788 59.9977C41.6757 60.628 41.6758 61.3069 41.879 61.9372C42.0823 62.5674 42.4782 63.1166 43.0102 63.5061L61.9822 77.4061L54.7406 99.8921C54.5383 100.522 54.5391 101.201 54.7428 101.831C54.9464 102.461 55.3425 103.009 55.8744 103.399C56.4062 103.788 57.0466 103.997 57.7037 103.997C58.3609 103.997 59.0011 103.787 59.5329 103.398L78.5049 89.4981L97.4769 103.398C98.0087 103.787 98.649 103.997 99.3061 103.997C99.9633 103.997 100.604 103.788 101.135 103.399C101.667 103.009 102.063 102.461 102.267 101.831C102.471 101.201 102.471 100.522 102.269 99.8921L95.0277 77.4061L114 63.5061C114.532 63.1162 114.928 62.5662 115.131 61.935C115.335 61.3039 115.334 60.6241 115.13 59.9934C114.925 59.3626 114.528 58.8134 113.995 58.4245C113.462 58.0357 112.82 57.8272 112.161 57.8291Z" fill="#EC9922"/>
</svg>