<svg xmlns="http://www.w3.org/2000/svg" width="315" height="199" viewBox="0 0 315 199" fill="none">
  <path d="M293.696 0.0978131L212.37 2.30686H92.7725C73.1814 1.57051 30.582 0.0978131 16.9138 0.0978131C3.24553 0.0978131 0.284077 11.8794 0.511881 17.7702V173.876C0.511881 195.083 11.4465 199.403 16.9138 198.912C57.2351 196.703 141.842 192.138 157.697 191.549C177.516 190.813 258.842 197.44 286.862 198.912C309.278 200.091 314.426 189.094 314.198 183.449C314.426 136.814 314.745 38.9771 314.198 20.7156C313.651 2.45414 300.302 -0.638537 293.696 0.0978131Z" fill="url(#paint0_linear_32637_4304)"/>
  <defs>
    <linearGradient id="paint0_linear_32637_4304" x1="0.499999" y1="101.309" x2="314.5" y2="101.309" gradientUnits="userSpaceOnUse">
      <stop stop-color="#DC2366"/>
      <stop offset="1" stop-color="#4F5CAA"/>
    </linearGradient>
  </defs>
</svg>