<svg xmlns="http://www.w3.org/2000/svg" width="100" height="20" viewBox="0 0 100 20" fill="none">
  <path d="M90.6249 18.8555H88.0893V8.96702C86.7279 8.89936 85.3638 8.91045 84.0037 9.00025C83.3782 9.12633 82.8207 9.48033 82.4377 9.99461C82.0548 10.5089 81.8733 11.1474 81.9279 11.788C81.9 13.763 81.9203 15.738 81.9194 17.7138V19.054H79.1742C79.1742 17.7802 79.1742 16.5354 79.1742 15.2898C79.1785 14.1047 79.1328 12.9195 79.2063 11.7352C79.2754 10.3563 79.862 9.05546 80.8471 8.09627C81.8322 7.13707 83.1422 6.59127 84.5116 6.56946C87.8806 6.51238 91.2504 6.5209 94.621 6.5652C95.8948 6.53671 97.1344 6.98232 98.103 7.81689C99.0715 8.65146 99.7011 9.81649 99.8714 11.0894C100.125 13.6965 99.9271 16.3488 99.9271 19.054H96.8253C96.8253 17.8526 96.8253 16.6854 96.8253 15.5181C96.8253 14.1754 96.8549 12.8309 96.8134 11.489C96.8424 11.1409 96.7955 10.7907 96.676 10.4628C96.5565 10.135 96.3674 9.8374 96.1217 9.59103C95.8761 9.34466 95.58 9.15542 95.2542 9.03659C94.9284 8.91776 94.5807 8.8722 94.2356 8.90312C93.0718 8.88182 91.9071 8.90312 90.6292 8.90312L90.6249 18.8555Z" fill="url(#paint0_linear_32592_4012)"/>
  <path d="M25.0119 17.8056C24.2325 17.2808 23.5933 16.5707 23.1507 15.7379C22.7081 14.9051 22.4757 13.9753 22.4739 13.0305C22.4721 12.0858 22.7011 11.1551 23.1407 10.3207C23.5802 9.48624 24.2167 8.77372 24.9941 8.24599C26.436 7.19397 28.186 6.65914 29.9647 6.72686C33.3455 6.78394 36.2107 8.74612 36.9536 11.5092C37.7726 14.5543 36.1194 17.5823 32.8367 18.7999C31.8374 19.1833 30.7786 19.3853 29.7095 19.3963C28.0151 19.3864 26.3685 18.8289 25.0119 17.8056ZM25.8892 10.5728C25.3901 11.0877 25.0644 11.7478 24.9582 12.4596C24.852 13.1714 24.9707 13.8989 25.2975 14.5389C25.6702 15.3361 26.259 16.0107 26.9958 16.4849C27.7327 16.959 28.5876 17.2134 29.4618 17.2185C32.3025 17.2279 34.4037 15.6108 34.6564 13.4697C34.7409 12.4331 34.4373 11.4023 33.8055 10.5801C33.1737 9.75786 32.2594 9.20391 31.2426 9.02729C30.7265 8.90094 30.1975 8.83603 29.6663 8.83388C28.9482 8.82327 28.2368 8.9738 27.5835 9.27456C26.9302 9.57532 26.3515 10.0188 25.8892 10.5728ZM65.1561 17.6445C63.7007 15.7028 61.9367 13.9971 60.188 12.0579C61.8731 10.2052 63.6503 8.43986 65.5128 6.7686C66.1191 6.45457 66.8113 6.35095 67.4821 6.47381C67.8624 6.49399 68.2436 6.49399 68.6239 6.47381L63.1225 12.0357L69.7075 18.989C69.1953 19.0779 68.677 19.1269 68.1574 19.1355C67.5726 19.1651 66.99 19.0437 66.4647 18.7828C65.9395 18.5219 65.4891 18.1301 65.1561 17.6445ZM2.1282 19.1364C1.4188 19.1364 0.7094 19.1364 0 19.1364V0.638384C0.329067 0.650812 0.658546 0.646546 0.987188 0.625604C1.75885 0.590672 2.53136 0.555739 2.78238 0.90336C3.29795 1.61564 3.03087 2.91751 3.05876 3.9706C3.08665 4.98535 3.06468 6.00179 3.06468 7.05744C4.58603 7.1256 5.98821 7.1486 7.3794 7.25766C10.5472 7.50559 12.4599 9.09374 13.0921 11.9369C13.3336 13.2479 13.1495 14.6024 12.567 15.7996C11.9845 16.9967 11.0346 17.9727 9.85835 18.5826C9.24414 18.912 8.5618 19.0915 7.86623 19.1066C6.57562 19.1364 5.285 19.1441 3.99439 19.1441C3.37289 19.1412 2.75083 19.1387 2.1282 19.1364ZM2.88381 9.83499C2.9117 10.9 2.89141 11.965 2.88972 13.0317V13.3845C2.88972 17.5593 2.89479 17.596 7.08273 17.043C7.85111 16.9182 8.5609 16.5524 9.1112 15.9976C9.67909 15.4109 10.0483 14.6581 10.1659 13.847C10.2836 13.0358 10.1437 12.208 9.76623 11.4819C9.09345 9.93638 8.02935 8.862 6.16992 8.9685C5.35008 9.01536 4.52517 9.01195 3.70364 8.99235H3.658C3.09003 8.9915 2.86775 9.2437 2.88296 9.83584L2.88381 9.83499ZM43.6416 18.1242C42.6103 17.7124 41.7268 16.9955 41.1073 16.0678C40.4879 15.1401 40.1616 14.0452 40.1713 12.9269C40.1391 11.77 40.4484 10.6295 41.0601 9.6501C41.6718 8.67066 42.5582 7.8964 43.607 7.4255C46.1662 6.11341 48.9241 6.20202 51.6465 6.69022C51.9956 6.75242 52.1536 7.88304 52.4714 8.69671C50.5275 8.69671 48.963 8.60043 47.4171 8.71971C46.4255 8.7267 45.4651 9.0701 44.6908 9.69456C43.9165 10.319 43.3733 11.1881 43.1489 12.1618C43.0041 12.6458 42.9608 13.1549 43.0218 13.6566C43.0829 14.1584 43.2469 14.6418 43.5035 15.0761C43.7601 15.5105 44.1035 15.8862 44.5121 16.1793C44.9206 16.4725 45.3852 16.6767 45.8763 16.7789C47.5011 17.002 49.1387 17.1175 50.7785 17.1248C51.2011 17.1478 51.6237 17.0924 52.1308 17.0694V18.9438C50.9695 19.0086 49.8057 19.0998 48.652 19.0998C46.93 19.1589 45.2171 18.8255 43.6408 18.1242H43.6416ZM55.4516 19.0418C55.4254 18.6439 55.373 18.2316 55.373 17.8183C55.3679 12.5325 55.4 7.23891 55.3442 1.95048C55.3324 0.868427 55.6823 0.549775 56.6881 0.657981C57.3819 0.697974 58.0772 0.702524 58.7715 0.671613V19.0418H55.4516ZM15.8964 19.0376V0.676725C16.8261 0.676725 17.7212 0.633272 18.6011 0.707397C18.7461 0.752572 18.8773 0.834362 18.9822 0.945005C19.087 1.05565 19.1621 1.19147 19.2003 1.33959C19.2333 7.20909 19.2265 13.0786 19.2265 19.0376H15.8964Z" fill="url(#paint1_linear_32592_4012)"/>
  <defs>
    <linearGradient id="paint0_linear_32592_4012" x1="79.1641" y1="15.6723" x2="99.9738" y2="14.7376" gradientUnits="userSpaceOnUse">
      <stop stop-color="#92BDC3"/>
      <stop offset="1" stop-color="#734FA8"/>
    </linearGradient>
    <linearGradient id="paint1_linear_32592_4012" x1="-0.836489" y1="11.391" x2="63.0176" y2="25.2659" gradientUnits="userSpaceOnUse">
      <stop stop-color="#E6281D"/>
      <stop offset="1" stop-color="#EDE94B"/>
    </linearGradient>
  </defs>
</svg>