<svg width="219" height="217" viewBox="0 0 219 217" fill="none" xmlns="http://www.w3.org/2000/svg">
<g id="Frame 1000006141">
<g id="Stars">
<g id="Group">
<path id="Vector" d="M150.958 198.548L146.925 199.294L146.024 203.545L145.123 199.294L141.09 198.546L145.105 197.565L146.024 193.549L146.942 197.565L150.958 198.548Z" fill="#CD296D"/>
<path id="Vector_2" d="M82.2401 8.83982L78.2071 9.58582L77.3061 13.8368L76.4041 9.58582L72.3711 8.83782L76.3871 7.85682L77.3061 3.84082L78.2241 7.85682L82.2401 8.83982Z" fill="#CD296D"/>
<path id="Vector_3" d="M33.8367 145.345L29.8037 146.091L28.9027 150.342L28.0017 146.091L23.9688 145.343L27.9837 144.362L28.9027 140.347L29.8207 144.362L33.8367 145.345Z" fill="#CD296D"/>
<path id="Vector_4" d="M148.404 128.22L144.371 128.965L143.469 133.217L142.568 128.965L138.535 128.217L142.551 127.236L143.469 123.22L144.388 127.236L148.404 128.22Z" fill="#CD296D"/>
<path id="Vector_5" d="M200.524 111.424L198.27 111.84L197.766 114.217L197.262 111.84L195.008 111.422L197.253 110.874L197.766 108.629L198.279 110.874L200.524 111.424Z" fill="#CD296D"/>
<path id="Vector_6" d="M60.7767 103.601L58.5227 104.018L58.0187 106.394L57.5157 104.018L55.2617 103.6L57.5057 103.051L58.0187 100.807L58.5327 103.051L60.7767 103.601Z" fill="#CD296D"/>
<path id="Vector_7" d="M130.628 24.4971L128.374 24.9141L127.871 27.2901L127.367 24.9141L125.113 24.4961L127.357 23.9481L127.871 21.7031L128.384 23.9481L130.628 24.4971Z" fill="#CD296D"/>
<path id="Vector_8" d="M183.214 149.864L180.96 150.281L180.456 152.657L179.953 150.281L177.699 149.863L179.943 149.314L180.456 147.07L180.97 149.314L183.214 149.864Z" fill="#CD296D"/>
<path id="Vector_9" d="M164.875 154.435L162.621 154.852L162.117 157.228L161.613 154.852L159.359 154.434L161.604 153.885L162.117 151.641L162.631 153.885L164.875 154.435Z" fill="#CD296D"/>
<path id="Vector_10" d="M164.875 59.7891L162.621 60.2061L162.117 62.5821L161.613 60.2061L159.359 59.7881L161.604 59.2401L162.117 56.9951L162.631 59.2401L164.875 59.7891Z" fill="#CD296D"/>
<path id="Vector_11" d="M67.016 56.3829L64.762 56.7999L64.258 59.1759L63.754 56.7999L61.5 56.3819L63.745 55.8329L64.258 53.5889L64.772 55.8329L67.016 56.3829Z" fill="#CD296D"/>
<path id="Vector_12" d="M11.4848 53.9297L9.23076 54.3467L8.72675 56.7227L8.22275 54.3467L5.96875 53.9287L8.21375 53.3797L8.72675 51.1357L9.23975 53.3797L11.4848 53.9297Z" fill="#CD296D"/>
<path id="Vector_13" d="M41.7845 165.708L39.5305 166.125L39.0265 168.501L38.5235 166.125L36.2695 165.707L38.5135 165.158L39.0265 162.914L39.5405 165.158L41.7845 165.708Z" fill="#CD296D"/>
<path id="Vector_14" d="M155.58 165.054C154.739 165.054 154.738 166.361 155.58 166.361C156.42 166.361 156.422 165.054 155.58 165.054Z" fill="#CD296D"/>
<path id="Vector_15" d="M165.51 73.4092C164.669 73.4092 164.668 74.7162 165.51 74.7162C166.351 74.7152 166.352 73.4092 165.51 73.4092Z" fill="#CD296D"/>
<path id="Vector_16" d="M50.5022 17.3398C49.6612 17.3398 49.6602 18.6468 50.5022 18.6468C51.3432 18.6458 51.3452 17.3398 50.5022 17.3398Z" fill="#CD296D"/>
<path id="Vector_17" d="M0.631125 58.4824C-0.209875 58.4824 -0.210875 59.7894 0.631125 59.7894C1.47213 59.7894 1.47313 58.4824 0.631125 58.4824Z" fill="#CD296D"/>
<path id="Vector_18" d="M39.0257 123.22C38.1847 123.22 38.1837 124.527 39.0257 124.527C39.8667 124.527 39.8687 123.22 39.0257 123.22Z" fill="#CD296D"/>
<path id="Vector_19" d="M19.681 111.267C19.086 111.267 19.085 112.191 19.681 112.191C20.276 112.191 20.277 111.267 19.681 111.267Z" fill="#CD296D"/>
<path id="Vector_20" d="M55.6458 33.2949C55.0508 33.2949 55.0498 34.2189 55.6458 34.2189C56.2408 34.2199 56.2418 33.2949 55.6458 33.2949Z" fill="#CD296D"/>
<path id="Vector_21" d="M69.349 98.2588C68.754 98.2588 68.753 99.1838 69.349 99.1838C69.944 99.1838 69.945 98.2588 69.349 98.2588Z" fill="#CD296D"/>
<path id="Vector_22" d="M26.7044 181.962C26.1094 181.962 26.1084 182.887 26.7044 182.887C27.2994 182.886 27.3004 181.962 26.7044 181.962Z" fill="#CD296D"/>
<path id="Vector_23" d="M141.679 171.488C140.067 171.488 140.064 173.994 141.679 173.994C143.291 173.994 143.294 171.488 141.679 171.488Z" fill="#CD296D"/>
<path id="Vector_24" d="M216.991 99.3438C215.379 99.3438 215.376 101.85 216.991 101.85C218.603 101.849 218.606 99.3438 216.991 99.3438Z" fill="#CD296D"/>
<path id="Vector_25" d="M90.5539 0C88.9419 0 88.9389 2.506 90.5539 2.506C92.1659 2.506 92.1689 0 90.5539 0Z" fill="#CD296D"/>
<path id="Vector_26" d="M74.132 49.917C72.52 49.917 72.517 52.423 74.132 52.423C75.745 52.423 75.747 49.917 74.132 49.917Z" fill="#CD296D"/>
<path id="Vector_27" d="M32.6242 177.711C31.0122 177.711 31.0092 180.217 32.6242 180.217C34.2362 180.217 34.2392 177.711 32.6242 177.711Z" fill="#CD296D"/>
</g>
</g>
<g id="Character">
<g id="Group_2">
<g id="Group_3">
<g id="Group_4">
<g id="Group_5">
<path id="Vector_28" d="M110.81 159.594C110.81 159.594 125.978 179.631 125.989 179.645C128.91 183.462 131.403 186.86 132.528 188.738C132.536 188.747 132.543 188.756 132.546 188.769C132.971 189.477 133.198 189.963 133.167 190.163C133.165 190.18 133.168 190.192 133.163 190.204C132.615 191.843 102.795 216.074 101.471 216.569C100.146 217.072 98.6314 213.329 99.0389 211.465C99.455 209.594 106.718 195.214 106.718 195.214L91.7461 175.041L110.81 159.594Z" fill="#EB9481"/>
<path id="Vector_29" d="M122.876 175.531C122.876 175.531 125.979 179.631 125.991 179.645C128.911 183.461 131.404 186.86 132.53 188.738C132.537 188.747 132.545 188.756 132.547 188.769C132.929 189.498 133.154 190 133.168 190.163C133.167 190.179 133.169 190.192 133.164 190.204C132.617 191.843 102.797 216.074 101.472 216.569C100.147 217.072 98.6327 213.328 99.0402 211.465C99.4562 209.594 106.72 195.214 106.72 195.214L103.502 191.082L122.876 175.531Z" fill="#EBEBEB"/>
<g id="Group_6">
<path id="Vector_30" d="M101.475 216.571C102.802 216.076 132.619 191.846 133.167 190.203C133.386 189.582 130.109 185.031 125.992 179.647C125.948 179.591 125.905 179.535 125.861 179.479L106.449 194.896L106.722 195.217C106.722 195.217 99.4568 209.596 99.044 211.467C98.637 213.327 100.151 217.071 101.475 216.571Z" fill="#C92B6F"/>
<g id="Group_7">
<path id="Vector_31" d="M100.874 215.142C105.8 210.934 126.065 194.428 131.255 190.643C131.297 190.612 131.319 190.64 131.28 190.675C126.489 194.952 106.09 211.293 100.94 215.225C100.832 215.308 100.77 215.231 100.874 215.142Z" fill="#263238"/>
<path id="Vector_32" d="M105.153 196.589C106.831 194.613 109.497 192.95 112.153 193.132C112.256 193.139 112.244 193.285 112.164 193.317C109.713 194.287 107.57 195.373 105.364 196.832C105.209 196.936 105.033 196.731 105.153 196.589Z" fill="#263238"/>
<path id="Vector_33" d="M104.426 198.61C106.104 196.633 108.77 194.971 111.426 195.152C111.529 195.159 111.518 195.305 111.437 195.337C108.986 196.308 106.843 197.394 104.637 198.853C104.482 198.956 104.306 198.751 104.426 198.61Z" fill="#263238"/>
<path id="Vector_34" d="M103.696 200.631C105.374 198.654 108.04 196.992 110.697 197.174C110.799 197.181 110.788 197.327 110.707 197.359C108.256 198.33 106.113 199.415 103.907 200.874C103.751 200.977 103.576 200.772 103.696 200.631Z" fill="#263238"/>
</g>
</g>
</g>
<g id="Group_8">
<path id="Vector_35" d="M124.863 177.02L104.088 194.427C104.088 194.427 80.1778 163.892 74.7896 148.482C70.9536 137.51 88.6792 82.6072 88.6792 82.6072L111.329 81.0732C111.329 81.0732 96.6687 133.954 98.2954 139.088C100.279 145.348 124.863 177.02 124.863 177.02Z" fill="#37474F"/>
<g id="Group_9">
<g id="Group_10">
<g id="Group_11">
<path id="Vector_36" d="M101.772 189.429C105.002 186.749 104.037 187.472 107.296 184.828C108.891 183.534 119.38 175.041 121.079 174.095C121.117 174.075 121.162 174.131 121.133 174.162C119.829 175.605 109.194 183.914 107.574 185.177C104.265 187.758 105.187 186.981 101.849 189.525C101.786 189.573 101.712 189.48 101.772 189.429Z" fill="#263238"/>
</g>
</g>
<path id="Vector_37" d="M117.961 173.246C114.092 168.41 110.313 163.497 106.664 158.492C103.04 153.522 99.4597 148.478 96.2045 143.258C95.4605 142.065 94.7532 140.828 94.334 139.479C93.8555 137.939 93.911 136.388 94.1713 134.813C94.6812 131.725 95.3239 128.651 95.9714 125.589C97.2713 119.443 98.7508 113.333 100.406 107.273C102.062 101.213 103.911 95.2109 105.87 89.2424C106.111 88.5069 106.356 87.7724 106.602 87.0385C106.639 86.9281 106.467 86.8886 106.428 86.9953C104.233 92.975 102.271 99.0378 100.509 105.159C98.7556 111.251 97.1934 117.396 95.8322 123.587C95.149 126.696 94.5132 129.815 93.9259 132.943C93.639 134.471 93.2955 136.033 93.3803 137.597C93.455 138.969 93.8939 140.279 94.4913 141.508C95.1335 142.83 95.9656 144.047 96.7784 145.268C97.6414 146.564 98.513 147.854 99.393 149.139C101.168 151.733 102.981 154.299 104.835 156.836C108.514 161.868 112.307 166.859 116.371 171.588C116.869 172.167 117.367 172.744 117.864 173.324C117.911 173.377 118.006 173.301 117.961 173.246Z" fill="#263238"/>
</g>
<path id="Vector_38" d="M111.329 81.0752C111.329 81.0752 107.051 96.5004 103.371 111.499C99.2482 102.96 92.2183 88.2651 89.8555 82.526L111.329 81.0752Z" fill="#263238"/>
</g>
</g>
<g id="Group_12">
<g id="Group_13">
<path id="Vector_39" d="M138.27 116.234C138.27 116.234 151.797 98.4547 151.808 98.4413C154.964 94.8165 157.796 91.6952 159.411 90.2172C159.418 90.2082 159.425 90.1991 159.438 90.1938C160.047 89.6353 160.478 89.3158 160.68 89.3068C160.696 89.3052 160.708 89.2998 160.721 89.3025C162.436 89.511 192.138 113.887 192.888 115.086C193.645 116.284 190.279 118.515 188.372 118.489C186.456 118.456 170.914 114.212 170.914 114.212L156.51 132.011L138.27 116.234Z" fill="#EB9481"/>
<path id="Vector_40" d="M160.685 89.3079C160.696 89.3031 160.708 89.2983 160.722 89.2989C162.438 89.5101 192.139 113.886 192.891 115.086C193.648 116.284 190.28 118.514 188.373 118.492C186.454 118.454 170.914 114.213 170.914 114.213L168.323 117.782C163.423 113.817 154.497 106.551 149.078 102.03C150.588 99.9055 151.806 98.443 151.812 98.4409C154.967 94.8156 157.795 91.6937 159.411 90.2189C159.42 90.2083 159.429 90.1976 159.44 90.1928C160.046 89.6328 160.478 89.3143 160.685 89.3079Z" fill="#EBEBEB"/>
<g id="Group_14">
<path id="Vector_41" d="M192.889 115.085C192.138 113.884 162.44 89.5098 160.72 89.3013C160.067 89.2106 156.263 93.3309 151.81 98.4417C151.764 98.4956 151.718 98.5495 151.672 98.6033L170.657 114.543L170.917 114.211C170.917 114.211 186.457 118.457 188.373 118.488C190.278 118.514 193.644 116.282 192.889 115.085Z" fill="#C92B6F"/>
<g id="Group_15">
<path id="Vector_42" d="M191.603 115.961C186.496 111.976 166.273 95.4175 161.528 91.0892C161.489 91.0539 161.512 91.0262 161.554 91.0577C166.702 94.898 186.79 111.619 191.671 115.88C191.774 115.969 191.711 116.045 191.603 115.961Z" fill="#263238"/>
<path id="Vector_43" d="M172.569 115.475C170.297 114.225 168.136 111.946 167.782 109.307C167.768 109.204 167.914 109.187 167.961 109.259C169.402 111.466 170.894 113.35 172.765 115.219C172.897 115.351 172.731 115.564 172.569 115.475Z" fill="#263238"/>
<path id="Vector_44" d="M174.698 115.786C172.425 114.537 170.264 112.257 169.911 109.618C169.897 109.516 170.043 109.498 170.09 109.57C171.531 111.778 173.023 113.661 174.894 115.531C175.026 115.662 174.86 115.876 174.698 115.786Z" fill="#263238"/>
<path id="Vector_45" d="M176.819 116.095C174.547 114.846 172.385 112.565 172.032 109.927C172.018 109.824 172.164 109.806 172.211 109.879C173.653 112.087 175.144 113.97 177.016 115.84C177.147 115.971 176.981 116.184 176.819 116.095Z" fill="#263238"/>
</g>
</g>
</g>
<g id="Group_16">
<path id="Vector_46" d="M89.0703 82.5578C89.0703 82.5578 89.0708 82.5637 89.0778 82.5807C89.2085 83.04 91.2897 90.2805 93.3592 96.481C94.8649 101.011 96.3679 104.981 97.1008 105.353C97.9307 105.77 101.936 107.23 103.277 107.683C103.277 107.683 111.9 137.503 119.076 147.209C121.534 150.534 132.737 153.861 138.216 150.269C151.068 141.843 170.108 119.923 170.108 119.923L147.927 101.794L132.227 122.624C128.336 115.406 126.226 100.84 126.226 100.84C126.226 100.84 125.343 86.4226 120.064 80.459L89.0703 82.5578Z" fill="#37474F"/>
<g id="Group_17">
<path id="Vector_47" d="M164.735 122.57C161.394 120.03 162.317 120.806 159.005 118.229C157.384 116.967 146.74 108.67 145.435 107.228C145.406 107.196 145.451 107.14 145.488 107.161C147.189 108.105 157.687 116.587 159.282 117.879C162.545 120.52 161.579 119.797 164.811 122.474C164.872 122.524 164.798 122.618 164.735 122.57Z" fill="#263238"/>
<path id="Vector_48" d="M119.392 97.2772C118.679 97.1449 117.926 97.1385 117.204 97.074C116.621 97.0217 116.039 96.9587 115.46 96.8718C114.369 96.7075 113.258 96.4227 112.333 95.7976C111.291 95.0941 110.709 93.9596 110.154 92.8688C109.825 92.2208 109.487 91.5786 109.145 90.937C108.979 90.626 108.812 90.3161 108.642 90.0078C108.443 89.6467 108.178 89.2744 108.024 88.8931C108.001 88.8376 107.912 88.8739 107.939 88.9251C108.069 89.1773 108.137 89.4702 108.238 89.7374C108.357 90.0521 108.47 90.3689 108.591 90.6831C108.808 91.2436 109.02 91.8064 109.247 92.3627C109.656 93.3617 110.03 94.413 110.67 95.293C111.84 96.9033 113.774 97.4527 115.678 97.5636C116.224 97.5951 116.772 97.5967 117.319 97.5908C117.995 97.5833 118.716 97.5951 119.383 97.4665C119.485 97.4473 119.504 97.2985 119.392 97.2772Z" fill="#263238"/>
<g id="Group_18">
<path id="Vector_49" d="M94.9628 104.463C97.8036 105.23 100.575 106.405 103.233 107.654C103.337 107.703 103.282 107.863 103.17 107.824C100.39 106.847 97.5609 105.923 94.8386 104.795C94.6252 104.706 94.7447 104.404 94.9628 104.463Z" fill="#263238"/>
<path id="Vector_50" d="M92.8979 86.0172C92.899 85.9233 93.0617 85.8913 93.0675 85.9927C93.2627 89.2004 93.6585 92.0081 94.1316 94.9864C94.3513 96.3695 95.9909 103.982 98.3655 103.258C98.7629 103.137 98.9421 102.725 98.9645 102.112C98.9912 101.375 98.6546 100.496 98.4845 99.7761C98.1079 98.1851 97.7831 96.5844 97.5351 94.9683C97.0716 91.951 96.8534 88.9166 97.0172 85.8663C97.0225 85.766 97.1665 85.7638 97.1729 85.8646C97.454 90.066 97.8476 94.2525 98.7576 98.3712C99.1949 100.351 100.406 103.293 98.3351 103.742C96.2256 104.2 94.5066 99.2502 94.1529 97.8885C93.1678 94.0871 92.8579 89.9327 92.8979 86.0172Z" fill="#263238"/>
<path id="Vector_51" d="M98.3147 103.469C98.5675 103.971 98.7793 104.496 98.9654 105.026C99.1094 105.438 99.2977 105.88 99.2796 106.321C99.2759 106.406 99.1644 106.422 99.1148 106.367C98.8076 106.028 98.655 105.545 98.4678 105.131C98.2512 104.65 98.0235 104.174 97.8208 103.687C97.6859 103.365 98.1584 103.16 98.3147 103.469Z" fill="#263238"/>
</g>
<path id="Vector_52" d="M145.564 109.594C142.154 114.501 138.533 119.267 134.717 123.85C133.685 125.091 132.63 126.31 131.562 127.52C128.087 122.744 126.4 116.979 125.05 111.262C124.703 109.795 124.376 108.323 124.042 106.852C123.685 105.282 123.229 103.709 123.031 102.106C122.826 100.445 122.916 98.7557 122.764 97.0878C122.615 95.4685 122.354 93.8609 122.002 92.2752C121.206 88.6888 119.947 85.1968 118.352 81.9037C118.331 81.8611 118.258 81.8936 118.276 81.9384C119.543 84.9957 120.673 88.1031 121.456 91.3295C121.852 92.9606 122.152 94.6156 122.344 96.2846C122.538 97.9668 122.516 99.6475 122.627 101.333C122.733 102.941 123.165 104.499 123.523 106.061C123.86 107.529 124.184 109 124.522 110.467C125.193 113.375 125.917 116.279 126.904 119.095C127.998 122.217 129.427 125.232 131.412 127.869C131.473 127.949 131.591 127.982 131.666 127.896C135.58 123.399 139.324 118.739 142.785 113.868C143.771 112.48 144.739 111.078 145.688 109.664C145.74 109.587 145.616 109.519 145.564 109.594Z" fill="#263238"/>
<path id="Vector_53" d="M132.368 122.474C132.23 122.688 132.112 122.9 132.003 123.119C131.966 123.149 131.928 123.178 131.89 123.207C131.819 123.262 131.745 123.316 131.686 123.385C131.569 123.524 131.466 123.676 131.38 123.837C131.204 124.167 131.16 124.524 131.145 124.892C131.144 124.906 131.164 124.904 131.165 124.891C131.197 124.546 131.353 124.213 131.516 123.912C131.597 123.763 131.692 123.624 131.801 123.495C131.831 123.459 131.858 123.422 131.885 123.385C131.868 123.429 131.845 123.467 131.829 123.512C131.689 123.908 131.599 124.32 131.54 124.735C131.484 125.135 131.511 125.522 131.561 125.921C131.609 126.306 131.623 126.725 131.75 127.094C131.755 127.107 131.774 127.104 131.775 127.09C131.787 126.694 131.729 126.302 131.775 125.904C131.819 125.519 131.898 125.138 131.949 124.754C132 124.378 132.081 124.007 132.169 123.639C132.26 123.263 132.337 122.875 132.446 122.504C132.459 122.457 132.393 122.436 132.368 122.474Z" fill="#263238"/>
</g>
</g>
</g>
</g>
<g id="Group_19">
<g id="Group_20">
<path id="Vector_54" d="M107.943 46.369C103.754 49.3879 84.1935 57.3415 77.0628 53.7423C69.7951 50.0738 62.5998 30.3651 61.1709 28.6572C57.2528 23.9742 74.1117 17.3417 75.6515 20.5878C78.2256 26.0127 83.698 40.5029 86.2118 40.8165C91.4959 41.4753 96.339 40.7872 104.614 40.6901C110.386 40.6219 112.568 43.0354 107.943 46.369Z" fill="#EB9481"/>
<g id="Group_21">
<path id="Vector_55" d="M77.4248 24.1865C77.4248 24.1865 84.283 39.64 85.8314 40.0811C88.4049 40.8139 102.359 40.3318 107.376 40.4166C112.394 40.5014 117.217 44.9385 105.346 49.3725C93.4762 53.8069 83.4552 56.1127 77.0206 54.6587C73.0096 53.7525 61.9922 36.3656 61.9922 36.3656L77.4248 24.1865Z" fill="#C92B6F"/>
<path id="Vector_56" opacity="0.1" d="M77.4248 24.1865C77.4248 24.1865 84.283 39.64 85.8314 40.0811C88.4049 40.8139 102.359 40.3318 107.376 40.4166C112.394 40.5014 117.217 44.9385 105.346 49.3725C93.4762 53.8069 83.4552 56.1127 77.0206 54.6587C73.0096 53.7525 61.9922 36.3656 61.9922 36.3656L77.4248 24.1865Z" fill="black"/>
<path id="Vector_57" d="M64.9824 39.1994C70.4847 34.0144 77.0206 29.4498 78.105 28.5682C78.1562 28.5266 78.2148 28.6188 78.161 28.6583C77.0537 29.4642 70.1278 35.5383 65.0437 39.2986C64.985 39.3418 64.929 39.2495 64.9824 39.1994Z" fill="#263238"/>
<path id="Vector_58" opacity="0.1" d="M112.72 43.9512C112.506 45.5193 110.506 47.4448 105.343 49.3703C93.4754 53.8079 83.4533 56.1121 77.0208 54.6613C76.2207 54.48 75.138 53.6426 73.9219 52.4105C83.0692 50.437 105.124 45.69 112.72 43.9512Z" fill="black"/>
</g>
<g id="Group_22">
<g id="Group_23">
<path id="Vector_59" d="M62.2529 30.4375C63.9069 31.6653 75.5888 24.7917 75.8561 22.694C75.9041 22.2993 75.8315 21.5509 75.6513 20.5871C75.6571 20.5834 75.6571 20.5834 75.6571 20.5834C75.6571 20.5834 76.4801 15.9414 78.5379 12.3225C80.2607 9.28012 83.1681 4.95979 81.5664 3.97198C79.2355 2.52493 74.9029 7.54612 72.5918 10.58C71.7715 8.67527 70.8861 7.11355 70.037 6.39243C67.217 3.99811 54.9275 15.2283 55.6433 18.9214C56.334 22.4833 60.5989 29.2091 62.2529 30.4375Z" fill="#EB9481"/>
</g>
<g id="Group_24">
<path id="Vector_60" d="M73.6454 10.9489C72.9829 12.7539 71.2351 10.9404 71.2351 10.9404C71.2351 10.9404 73.1216 14.1572 71.7194 15.7541C70.3635 17.2892 68.3293 15.0239 68.1815 14.8639C68.2796 15.0351 69.9363 18.0364 68.3618 19.4957C66.7243 21.011 65.0725 18.3863 64.9663 18.2167C65.0085 18.4071 65.5232 20.9374 64.0751 21.7743C61.5858 23.2107 60.0913 16.7771 58.0666 15.6304C58.0666 15.6304 55.732 18.8407 55.6445 18.9192C55.6445 18.9192 54.0978 12.8275 55.7966 10.1825C56.6921 8.78824 58.1685 9.34775 58.1685 9.34775C58.1685 9.34775 57.4527 7.4388 58.656 6.25045C59.2752 5.6424 60.7991 6.0915 60.7991 6.0915C60.7991 6.0915 60.2897 4.53885 61.4263 3.5489C62.3304 2.75578 63.7182 3.33022 63.7182 3.33022C63.7182 3.33022 63.9209 1.61222 65.1077 1.10285C67.5004 0.0686377 75.0599 7.08358 73.6454 10.9489Z" fill="#EB9481"/>
<g id="Group_25">
<path id="Vector_61" d="M63.9571 3.386C63.9298 3.36467 63.9544 3.32253 63.9853 3.34013C67.0346 5.04053 69.8636 7.84288 71.3443 11.0271C71.3928 11.1317 71.244 11.2559 71.1688 11.1509C69.015 8.16077 66.865 5.67845 63.9571 3.386Z" fill="#263238"/>
<path id="Vector_62" d="M60.7771 6.04046C60.7451 6.01593 60.7862 5.96312 60.8235 5.98446C63.9555 7.75313 67.0555 10.9976 68.3302 14.8689C68.374 15.0017 68.2801 15.1649 68.2182 15.0156C67.1755 12.5055 63.4056 8.09075 60.7771 6.04046Z" fill="#263238"/>
<path id="Vector_63" d="M64.9659 18.5158C63.5999 14.8509 61.1971 11.9921 58.3062 9.41106C58.2683 9.37746 58.32 9.32786 58.359 9.34706C60.117 10.2245 61.788 12.0619 62.9673 13.6013C64.0965 15.076 64.8197 16.6335 65.0939 18.4678C65.1046 18.5387 64.9947 18.5936 64.9659 18.5158Z" fill="#263238"/>
</g>
<path id="Vector_64" d="M71.2978 10.9521C71.356 11.078 71.1085 11.0247 71.1629 11.1516C71.3906 11.6871 72.4862 15.0261 71.4648 15.7525C70.6444 16.3328 69.2961 15.633 68.8832 15.1615L67.8458 13.9748L68.408 15.4506C68.6533 16.0944 68.8219 16.8091 68.8438 17.494C68.8678 18.1772 68.7094 18.8642 68.2544 19.2856C67.7877 19.7347 67.1594 19.8483 66.6127 19.5187C66.059 19.2152 65.5827 18.6413 65.2403 18.0674L64.2829 16.4635L64.6616 18.2839C64.764 18.7773 64.8115 19.3176 64.7827 19.8259C64.7512 20.3331 64.6349 20.8414 64.3533 21.2009C64.0786 21.5551 63.6066 21.762 63.19 21.6612C62.75 21.5615 62.3398 21.1999 61.9862 20.8201C61.272 20.0355 60.7173 19.0866 60.121 18.174C59.8255 17.7143 59.5295 17.2518 59.2105 16.8038C58.8878 16.3664 58.5512 15.9008 58.0664 15.6298C58.5171 15.9467 58.7923 16.4336 59.0841 16.887C59.3646 17.3532 59.6228 17.8332 59.8825 18.3143C60.4015 19.2765 60.9354 20.2393 61.6475 21.1172C62.015 21.5386 62.4283 21.9829 63.0593 22.1717C63.7122 22.361 64.4093 22.0581 64.8019 21.5588C65.2046 21.0516 65.3326 20.4387 65.3806 19.867C65.42 19.2845 65.3811 18.7261 65.2707 18.1479L64.692 18.3645C65.0915 19.0456 65.5672 19.6648 66.2964 20.0947C66.6559 20.3043 67.1204 20.4174 67.5658 20.3374C68.0138 20.259 68.3888 20.0334 68.6944 19.7395C69.3259 19.1256 69.4801 18.2332 69.4412 17.4716C69.3995 16.6875 69.2139 15.9541 68.927 15.2314L68.4512 15.5205C68.9963 16.1024 70.4183 17.0486 71.8035 16.3088C73.4639 15.0741 71.6712 11.5698 71.2978 10.9521Z" fill="#263238"/>
<path id="Vector_65" d="M71.2344 10.9401C71.5843 11.1716 71.9459 11.3641 72.2937 11.4601C72.6409 11.5583 72.9668 11.4862 73.1796 11.2782C73.3983 11.0739 73.513 10.7059 73.5898 10.331C73.6559 9.94959 73.706 9.5453 73.7412 9.125C73.9124 9.51276 74.0084 9.93306 74.0084 10.3683C74.0058 10.7961 73.9252 11.283 73.5524 11.6665C73.354 11.8425 73.1156 11.9577 72.8585 11.9887C72.6009 12.0116 72.3529 11.9562 72.1459 11.8521C71.7277 11.6495 71.4339 11.3118 71.2344 10.9401Z" fill="#263238"/>
</g>
</g>
</g>
<g id="Group_26">
<g id="Group_27">
<path id="Vector_66" d="M122.863 88.6825C122.754 88.7684 88.3468 84.9761 88.062 84.5104C87.6646 83.8554 97.9198 48.1892 105.792 40.8697C107.761 39.0392 113.207 39.8558 115.398 42.2197C126.254 53.9337 123.251 88.3721 122.863 88.6825Z" fill="#EBEBEB"/>
</g>
<path id="Vector_67" d="M105.491 40.8701L92.2751 89.0306L85.5156 84.1823C85.5156 84.1823 96.5586 52.9793 99.7333 48.0131C102.908 43.0463 105.491 40.8701 105.491 40.8701Z" fill="#C92B6F"/>
<path id="Vector_68" opacity="0.1" d="M105.491 40.8701L92.2751 89.0306L85.5156 84.1823C85.5156 84.1823 96.5586 52.9793 99.7333 48.0131C102.908 43.0463 105.491 40.8701 105.491 40.8701Z" fill="black"/>
<path id="Vector_69" d="M113.273 40.5234C113.273 40.5234 112.752 59.0529 112.736 63.4063C112.721 67.7591 111.73 91.5268 111.73 91.5268L127.383 88.6834C127.383 88.6834 124.528 65.6395 123.532 60.3138C122.536 54.9885 118.348 42.0958 113.273 40.5234Z" fill="#C92B6F"/>
<path id="Vector_70" opacity="0.1" d="M113.273 40.5234C113.273 40.5234 112.752 59.0529 112.736 63.4063C112.721 67.7591 111.73 91.5268 111.73 91.5268L127.383 88.6834C127.383 88.6834 124.528 65.6395 123.532 60.3138C122.536 54.9885 118.348 42.0958 113.273 40.5234Z" fill="black"/>
</g>
<g id="Group_28">
<g id="Group_29">
<path id="Vector_71" d="M116.978 50.9432C126.08 60.2613 138.136 70.2306 144.845 68.8048C150.908 67.5162 159.621 60.4053 169.132 52.7439C171.022 51.2216 158.415 37.1533 156.566 38.9738C152.921 42.5634 145.443 51.7273 142.656 52.7391C141.46 53.1733 128.081 46.4885 119.312 43.1463C108.667 39.0884 113.351 47.2299 116.978 50.9432Z" fill="#EB9481"/>
<g id="Group_30">
<path id="Vector_72" d="M177.486 46.2609C174.991 49.2665 166.328 54.8968 164.132 55.2013C161.936 55.5059 154.456 42.9801 155.287 40.8626C156.118 38.7451 165.301 29.2767 169.205 28.4745C173.108 27.6717 180.071 43.1471 177.486 46.2609Z" fill="#EB9481"/>
<g id="Group_31">
<path id="Vector_73" d="M163.452 30.9151C163.145 32.9616 165.733 32.152 165.733 32.152C165.733 32.152 162.289 34.2151 162.788 36.4472C163.275 38.5973 166.366 37.5092 166.589 37.4345C166.407 37.5455 163.292 39.5237 164.025 41.7154C164.788 43.9923 167.704 42.3672 167.892 42.2615C167.754 42.42 165.961 44.5433 166.896 46.0816C168.504 48.7244 173.239 43.4206 175.744 43.3843C175.744 43.3843 177.267 46.3733 177.309 46.4933C177.309 46.4933 180.941 42.788 180.703 39.4128C180.577 37.6335 178.894 37.3988 178.894 37.3988C178.894 37.3988 180.557 35.9656 180.034 34.222C179.763 33.3275 178.092 32.9648 178.092 32.9648C178.092 32.9648 179.375 31.7621 178.814 30.2398C178.369 29.0237 176.762 28.8493 176.762 28.8493C176.762 28.8493 177.458 27.1223 176.601 26.0278C174.876 23.8148 164.114 26.5334 163.452 30.9151Z" fill="#EB9481"/>
<g id="Group_32">
<path id="Vector_74" d="M176.517 28.7818C176.553 28.7759 176.552 28.7231 176.514 28.7236C172.756 28.754 168.637 29.9387 165.593 32.181C165.493 32.2546 165.569 32.4487 165.695 32.3885C169.274 30.6774 172.586 29.4442 176.517 28.7818Z" fill="#263238"/>
<path id="Vector_75" d="M178.146 32.9289C178.189 32.922 178.178 32.851 178.131 32.8516C174.26 32.9038 169.656 34.3658 166.453 37.3634C166.343 37.4663 166.347 37.6685 166.482 37.5602C168.764 35.7281 174.605 33.5071 178.146 32.9289Z" fill="#263238"/>
<path id="Vector_76" d="M167.747 42.5476C170.931 39.7922 174.677 38.3345 178.74 37.3904C178.793 37.3782 178.77 37.3046 178.723 37.303C176.61 37.223 174.083 38.095 172.174 38.9399C170.345 39.749 168.858 40.8462 167.651 42.4367C167.604 42.498 167.68 42.6063 167.747 42.5476Z" fill="#263238"/>
</g>
<path id="Vector_77" d="M165.733 32.1523C165.109 32.6137 164.521 33.1226 163.999 33.6837C163.488 34.2432 163.016 34.8886 162.876 35.5899C162.809 35.9361 162.853 36.2865 163.028 36.5777C163.209 36.8722 163.459 37.1394 163.756 37.301C164.349 37.6397 165.137 37.5853 165.77 37.3527L167.363 36.7682L166.07 37.8712C165.506 38.3523 164.978 38.9401 164.603 39.5758C164.227 40.209 164.021 40.9392 164.234 41.5723C164.442 42.2379 164.977 42.6694 165.664 42.6406C166.344 42.6401 167.09 42.3446 167.71 41.9792L169.443 40.9594L168.145 42.4827C167.794 42.8956 167.47 43.3815 167.234 43.8759C167.002 44.3714 166.849 44.9112 166.929 45.3966C167.006 45.8729 167.344 46.3124 167.79 46.4318C168.256 46.5652 168.831 46.4356 169.361 46.2596C170.441 45.8873 171.455 45.2782 172.49 44.7245C173.007 44.4429 173.525 44.1597 174.057 43.901C174.589 43.6546 175.147 43.3889 175.744 43.3836C175.155 43.4503 174.643 43.7676 174.134 44.045C173.628 44.3399 173.136 44.66 172.642 44.9805C171.655 45.6211 170.653 46.2548 169.528 46.7156C168.964 46.9236 168.343 47.13 167.65 46.9817C166.936 46.8233 166.434 46.1769 166.321 45.5032C166.202 44.8163 166.398 44.1709 166.648 43.606C166.912 43.0358 167.237 42.5281 167.64 42.039L168.075 42.543C167.345 42.9798 166.576 43.3185 165.665 43.3479C165.217 43.3601 164.721 43.2273 164.341 42.9212C163.958 42.6161 163.721 42.2091 163.584 41.7739C163.305 40.8677 163.62 39.946 164.051 39.2462C164.495 38.5272 165.049 37.9309 165.694 37.3965L165.994 37.9149C165.179 38.1827 164.266 38.1853 163.507 37.7192C163.135 37.4861 162.857 37.1527 162.653 36.7778C162.443 36.3911 162.411 35.918 162.513 35.5105C162.729 34.6843 163.294 34.0778 163.853 33.5386C164.426 33.0031 165.061 32.5428 165.733 32.1523Z" fill="#263238"/>
</g>
<g id="Group_33">
<path id="Vector_78" d="M156.566 38.9748C156.566 38.9748 161.278 23.0877 166.585 27.9718C168.162 29.4231 172.906 37.2653 171.349 38.2489C169.34 39.5183 166.748 36.6146 165.411 34.5339C165.411 34.5339 164.569 40.1631 160.475 40.7461C157.907 41.1109 156.566 38.9748 156.566 38.9748Z" fill="#EB9481"/>
<path id="Vector_79" d="M166.114 27.5938C166.819 28.0605 167.385 28.708 167.923 29.356C168.461 30.0099 168.935 30.7129 169.38 31.4319C170.252 32.8843 171.072 34.3463 171.693 35.9571C171.843 36.3635 171.978 36.7833 172.015 37.2654C172.033 37.5038 172.016 37.7737 171.918 38.0292C171.872 38.1578 171.818 38.2639 171.711 38.4004C171.613 38.5141 171.508 38.6085 171.394 38.6762C170.942 38.9706 170.417 39.0186 169.943 38.9578C169.469 38.8805 169.039 38.6997 168.645 38.4799C167.86 38.0298 167.228 37.4153 166.669 36.763C166.101 36.1144 165.621 35.4077 165.161 34.693L165.698 34.5708C165.579 35.2279 165.394 35.8355 165.162 36.4398C164.93 37.0403 164.641 37.6201 164.291 38.1615C163.938 38.7002 163.507 39.1904 163.014 39.6005C162.523 40.015 161.956 40.3297 161.355 40.5259C161.924 40.2502 162.439 39.8875 162.876 39.4496C163.317 39.0133 163.67 38.5023 163.974 37.9684C164.278 37.4334 164.522 36.8649 164.711 36.2792C164.899 35.6973 165.045 35.0839 165.116 34.4961L165.207 33.7484L165.653 34.374C166.132 35.0477 166.609 35.725 167.168 36.3214C167.716 36.9203 168.306 37.4948 168.99 37.8703C169.648 38.2415 170.469 38.4399 171.013 38.0879C171.518 37.8201 171.323 36.9198 171.065 36.1779C170.803 35.4077 170.455 34.6498 170.107 33.8934C169.756 33.136 169.396 32.384 168.999 31.6527C168.18 30.2121 167.353 28.7325 166.114 27.5938Z" fill="#263238"/>
</g>
</g>
</g>
<g id="Group_34">
<path id="Vector_80" d="M154.717 40.7754C154.717 40.7754 143.684 52.0232 142.077 51.9202C139.407 51.7496 123.201 44.0636 118.444 42.4641C113.688 40.8645 108.599 41.8085 116.112 50.6823C124.588 60.6943 134.074 69.6155 143.885 69.6245C149.167 69.6293 165.632 58.1357 165.632 58.1357L154.717 40.7754Z" fill="#C92B6F"/>
<path id="Vector_81" opacity="0.1" d="M154.717 40.7754C154.717 40.7754 143.684 52.0232 142.077 51.9202C139.407 51.7496 123.201 44.0636 118.444 42.4641C113.688 40.8645 108.599 41.8085 116.112 50.6823C124.588 60.6943 134.074 69.6155 143.885 69.6245C149.167 69.6293 165.632 58.1357 165.632 58.1357L154.717 40.7754Z" fill="black"/>
<g id="Group_35">
<path id="Vector_82" d="M161.414 59.0893C157.965 52.3613 153.335 45.8717 152.608 44.6785C152.573 44.622 152.487 44.6897 152.525 44.7447C153.299 45.8749 157.792 53.9171 161.323 59.1623C161.364 59.2226 161.447 59.1543 161.414 59.0893Z" fill="#263238"/>
<path id="Vector_83" d="M123.145 58.3076C122.875 58.0686 122.683 57.7417 122.44 57.4739C122.181 57.1896 121.923 56.9064 121.659 56.6269C121.148 56.0839 120.639 55.5383 120.133 54.9905C119.121 53.895 118.051 52.864 117.008 51.801C116.992 51.7855 116.971 51.809 116.985 51.825C117.942 52.9786 118.88 54.1334 119.915 55.2199C119.938 55.2439 119.96 55.2668 119.983 55.2908C119.781 55.1532 119.576 55.0193 119.374 54.8823C118.954 54.599 118.534 54.3153 118.117 54.0294C118.092 54.0118 118.062 54.0534 118.085 54.0726C118.476 54.3931 118.875 54.695 119.294 54.9761C119.508 55.1201 119.724 55.261 119.946 55.3927C120.048 55.4535 120.152 55.5138 120.255 55.5735C120.643 55.9783 121.03 56.3832 121.421 56.7848C121.688 57.06 121.959 57.3299 122.234 57.5971C122.506 57.8628 122.843 58.0772 123.088 58.3673C123.122 58.4084 123.186 58.3439 123.145 58.3076Z" fill="#263238"/>
</g>
</g>
</g>
<g id="Group_36">
<g id="Group_37">
<g id="Group_38">
<g id="Group_39">
<path id="Vector_84" d="M106.631 47.3944C108.263 47.7896 112.286 45.3815 114.127 43.0485C114.253 42.8879 114.296 40.9849 114.459 38.6743C114.563 37.2726 114.712 35.7146 114.951 34.3027L105.731 34.9572C105.731 34.9572 106.102 38.0641 105.67 40.5235C105.632 40.7288 105.579 40.9166 105.511 41.0926C105.504 41.1187 105.49 41.1497 105.482 41.1865C105.117 42.2564 104.075 46.7752 106.631 47.3944Z" fill="#EB9481"/>
</g>
<path id="Vector_85" d="M105.516 41.0931C105.508 41.1197 105.493 41.1464 105.484 41.1864C105.758 41.2728 106.052 41.34 106.388 41.3885C111.442 42.1246 113.712 36.1978 114.287 34.3496L105.731 34.9545C105.731 34.9545 106.102 38.0619 105.676 40.525C105.634 40.7266 105.585 40.9139 105.516 41.0931Z" fill="#263238"/>
</g>
<g id="Group_40">
<g id="Group_41">
<path id="Vector_86" d="M119.048 23.7026C119.179 27.0298 115.217 35.5014 112.506 36.9106C108.575 38.9534 103.303 37.8637 101.861 33.4047C100.463 29.0822 105.822 18.1331 108.742 16.9725C113.043 15.2625 118.853 18.7881 119.048 23.7026Z" fill="#EB9481"/>
</g>
<g id="Group_42">
<path id="Vector_87" d="M111.614 25.5137C111.387 25.3404 111.206 25.1425 111 24.9478C110.767 24.7281 110.558 24.5771 110.483 24.2512C110.443 24.0763 110.586 23.8549 110.753 23.8005C111.139 23.6731 111.492 23.8709 111.784 24.1238C112.1 24.3984 112.273 24.6907 112.345 25.103C112.415 25.5025 111.913 25.7425 111.614 25.5137Z" fill="#A6A6A6"/>
<path id="Vector_88" d="M105.917 23.0538C106.195 23.1231 106.461 23.1402 106.742 23.1802C107.06 23.2256 107.308 23.2938 107.609 23.1487C107.77 23.0709 107.854 22.8213 107.793 22.657C107.651 22.2751 107.277 22.1236 106.897 22.0537C106.485 21.978 106.148 22.0249 105.782 22.226C105.426 22.4207 105.552 22.9626 105.917 23.0538Z" fill="#A6A6A6"/>
<path id="Vector_89" d="M108.313 32.0649C108.116 32.1406 107.897 32.2681 107.68 32.195C107.471 32.1257 107.274 31.9331 107.12 31.7822C107.105 31.7673 107.078 31.7785 107.082 31.8009C107.137 32.0878 107.393 32.3625 107.682 32.4308C107.964 32.4974 108.191 32.3268 108.357 32.1145C108.381 32.0851 108.342 32.0537 108.313 32.0649Z" fill="#263238"/>
<g id="Group_43">
<g id="Group_44">
<path id="Vector_90" d="M108.446 30.0707C107.906 30.434 107.312 30.5033 106.753 30.3822C106.504 30.3294 106.258 30.2334 106.031 30.1102C105.984 30.0889 105.94 30.0638 105.902 30.0366C105.862 30.0131 105.826 29.9918 105.784 29.9625C105.72 29.9235 105.707 29.8515 105.723 29.7827L105.726 29.7785C105.735 29.7576 105.743 29.7406 105.756 29.7214C105.756 29.7214 105.756 29.7214 105.758 29.7171L105.781 29.667C105.96 29.2163 106.295 28.557 106.295 28.557C106.097 28.5688 105.107 28.5853 105.22 28.3581C106.163 26.4806 107.213 24.3924 108.548 22.723C108.589 22.6659 108.68 22.7219 108.647 22.7832C107.812 24.6239 106.658 26.3046 105.79 28.1399C106.098 28.1533 106.61 28.1527 106.841 28.2573C106.897 28.3026 106.172 29.5198 106.108 29.7283C106.108 29.7283 106.104 29.7368 106.103 29.7512C106.81 30.1689 107.472 30.1854 108.415 29.995C108.471 29.9811 108.501 30.0398 108.446 30.0707Z" fill="#263238"/>
</g>
</g>
<g id="Group_45">
<path id="Vector_91" d="M106.395 29.9961C106.395 29.9961 106.56 30.6991 107.019 31.1236C107.187 31.281 107.389 31.4015 107.64 31.4383C108.155 31.5157 108.348 31.0964 108.42 30.6969C108.479 30.3689 108.451 30.0526 108.451 30.0526C108.451 30.0526 107.505 30.394 106.395 29.9961Z" fill="#263238"/>
<path id="Vector_92" d="M107.02 31.1241C107.188 31.2814 107.39 31.402 107.641 31.4388C108.156 31.5161 108.349 31.0969 108.421 30.6974C107.903 30.5352 107.269 30.6606 107.02 31.1241Z" fill="#FF9BBC"/>
</g>
<g id="Group_46">
<path id="Vector_93" d="M110.921 26.9235C110.95 26.7688 110.944 26.5965 110.881 26.4243C110.818 26.252 110.658 26.1138 110.487 26.0482C110.311 25.9805 110.086 26.02 109.941 26.124C109.797 26.228 109.691 26.3571 109.617 26.4963C109.569 26.5848 109.532 26.6766 109.498 26.7699C109.429 26.9683 109.396 27.1747 109.424 27.3795C109.466 27.2323 109.524 27.0942 109.595 26.9656C109.661 26.8424 109.732 26.7299 109.812 26.6238C109.979 26.4045 110.197 26.2493 110.391 26.332C110.602 26.4013 110.695 26.6248 110.689 26.9038C110.684 27.1769 110.627 27.4644 110.562 27.7556C110.739 27.514 110.869 27.2345 110.921 26.9235Z" fill="#263238"/>
</g>
<g id="Group_47">
<path id="Vector_94" d="M105.328 24.3496C105.42 24.2216 105.548 24.1069 105.716 24.0333C105.884 23.9597 106.095 23.9794 106.26 24.0573C106.432 24.1378 106.559 24.3272 106.584 24.5037C106.609 24.6797 106.589 24.8456 106.539 24.996C106.509 25.092 106.468 25.1822 106.424 25.2707C106.328 25.4574 106.202 25.6249 106.036 25.747C106.113 25.6147 106.172 25.4766 106.216 25.3368C106.259 25.204 106.291 25.0744 106.313 24.9437C106.355 24.6712 106.316 24.4061 106.123 24.3234C105.927 24.2194 105.701 24.3064 105.504 24.5043C105.31 24.6968 105.142 24.9368 104.977 25.1848C105.028 24.8893 105.139 24.6024 105.328 24.3496Z" fill="#263238"/>
</g>
</g>
<g id="Group_48" opacity="0.2">
<path id="Vector_95" d="M110.627 22.306C110.293 22.217 109.954 22.1434 109.634 22.0079C109.309 21.8713 109.017 21.6729 108.689 21.5433C108.068 21.298 107.418 21.2649 106.733 21.2452C106.675 21.2436 106.671 21.2804 106.729 21.2836C107.427 21.3252 108.121 21.4228 108.748 21.7513C109.275 22.0271 109.755 22.2602 110.339 22.3887C111.625 22.6714 112.85 23.1136 113.758 24.1126C113.763 24.119 113.774 24.111 113.768 24.1041C112.959 23.1717 111.805 22.6202 110.627 22.306Z" fill="black"/>
<path id="Vector_96" d="M110.977 21.4464C110.66 21.3616 110.339 21.2923 110.035 21.1637C109.728 21.0341 109.45 20.8458 109.14 20.7232C108.551 20.4901 107.935 20.4592 107.285 20.4405C107.23 20.4389 107.227 20.4741 107.282 20.4773C107.943 20.5168 108.601 20.609 109.196 20.9211C109.695 21.1824 110.151 21.4038 110.705 21.5254C111.924 21.7937 113.086 22.2124 113.946 23.1602C113.951 23.166 113.962 23.1586 113.956 23.1522C113.189 22.2673 112.094 21.7446 110.977 21.4464Z" fill="black"/>
</g>
<path id="Vector_97" d="M106.084 19.2782C108.429 22.528 113.847 20.8372 113.847 20.8372C113.975 23.6284 116.511 24.2113 116.511 24.2113C116.511 24.2113 115.231 29.6928 116.622 30.1814C118.743 30.9292 121.977 23.991 121.817 22.3413C121.657 20.6916 119.991 19.6851 119.991 19.6851C119.991 19.6851 120.253 18.5442 119.304 17.0759C118.256 15.4512 112.734 15.145 112.734 15.145C112.734 15.145 112.725 14.0948 112.076 12.9641C111.663 12.2493 110.839 12.0669 110.13 12.4595C110.248 12.8931 110.273 13.3961 110.171 13.9396C109.867 15.5696 108.608 15.1146 109.122 13.722C109.351 13.1027 109.722 12.6851 110.13 12.4595C109.837 11.3229 108.929 10.661 108.137 10.9282C106.699 11.413 104.133 16.5771 106.084 19.2782Z" fill="#A6A6A6"/>
<g id="Group_49">
<path id="Vector_98" d="M108.976 29.5333C107.789 28.7748 107.44 27.1918 108.198 26.0039C108.956 24.8161 110.539 24.4668 111.727 25.2252C112.915 25.9837 113.264 27.5667 112.506 28.7546C111.865 29.7589 110.633 30.1637 109.55 29.8064C109.352 29.7413 109.16 29.6506 108.976 29.5333ZM108.486 26.1874C107.829 27.2168 108.131 28.5881 109.16 29.2453C110.188 29.9029 111.561 29.5989 112.218 28.5705C112.874 27.5411 112.572 26.1698 111.543 25.5127C111.385 25.4114 111.217 25.333 111.046 25.2764C110.108 24.9671 109.041 25.318 108.486 26.1874Z" fill="#455A64"/>
<path id="Vector_99" d="M104.087 27.2408C103.137 26.7981 102.847 25.398 103.442 24.1205C103.726 23.5109 104.167 23.0165 104.685 22.729C105.221 22.4313 105.774 22.3865 106.245 22.6074C106.716 22.826 107.039 23.2783 107.156 23.88C107.269 24.4614 107.175 25.118 106.891 25.7276C106.328 26.9362 105.172 27.6093 104.243 27.3027C104.19 27.2851 104.138 27.2643 104.087 27.2408ZM104.851 23.0277C104.396 23.2805 104.005 23.72 103.751 24.2651C103.236 25.3718 103.451 26.5677 104.231 26.9309C105.014 27.2963 106.066 26.6898 106.581 25.5831C106.835 25.0379 106.919 24.456 106.82 23.9451C106.724 23.4538 106.468 23.0885 106.1 22.9172C106.061 22.8986 106.021 22.8831 105.98 22.8692C105.638 22.7562 105.242 22.8106 104.851 23.0277Z" fill="#455A64"/>
<path id="Vector_100" d="M108.145 26.3084L108.455 26.1639C108.241 25.7052 107.613 24.9302 106.766 25.2721L106.894 25.5889C107.652 25.2812 108.125 26.2668 108.145 26.3084Z" fill="#455A64"/>
<path id="Vector_101" d="M118.193 31.7118L118.534 31.698C118.528 31.5385 118.452 30.1304 117.812 29.6957C117.214 29.2914 112.881 27.7467 112.697 27.6816L112.582 28.0038C113.825 28.4454 117.158 29.6647 117.62 29.9784C118.042 30.2648 118.177 31.3267 118.193 31.7118Z" fill="#455A64"/>
</g>
<g id="Group_50">
<path id="Vector_102" d="M115.239 30.4546C115.239 30.4546 118.053 28.1611 119.149 29.2433C120.245 30.3255 117.562 34.0469 115.876 34.1813C114.19 34.3157 114.035 32.7577 114.035 32.7577L115.239 30.4546Z" fill="#EB9481"/>
<path id="Vector_103" d="M118.351 30.2905C118.376 30.2953 118.371 30.3311 118.347 30.3337C117.155 30.4634 116.31 31.2944 115.625 32.2102C116.056 31.9051 116.55 31.8112 116.972 32.3398C116.994 32.3675 116.955 32.4038 116.927 32.3888C116.516 32.1707 116.178 32.1568 115.783 32.4235C115.503 32.6123 115.271 32.8854 115.039 33.1297C114.962 33.2108 114.804 33.111 114.872 33.0113C114.877 33.0038 114.883 32.9964 114.888 32.9889C115.247 31.6186 116.848 30.0121 118.351 30.2905Z" fill="#263238"/>
</g>
</g>
</g>
<g id="Group_51">
<g id="Group_52">
<path id="Vector_104" d="M105.446 40.9193L107.419 46.4403L114.44 39.8232L116.269 42.1045C116.269 42.1045 109.239 52.7773 109.216 52.2818L107.157 47.5092L103.797 50.6443L104.376 42.4698L105.446 40.9193Z" fill="#EBEBEB"/>
<path id="Vector_105" d="M103.851 46.5871C103.991 45.2409 104.095 43.8808 104.299 42.5426C104.306 42.4951 104.381 42.4764 104.391 42.533C104.611 43.8472 104.045 48.9932 104.003 50.2306C104.008 50.2263 104.013 50.2215 104.018 50.2173C104.158 50.0813 107.127 47.4645 107.153 47.5093C107.61 48.2721 109.122 51.7481 109.223 52.0628C110.335 50.3672 114.584 44.212 115.885 42.6183C115.922 42.5724 115.993 42.614 115.964 42.6679C114.97 44.4654 109.341 52.7583 109.26 52.7311C109.203 52.7716 107.322 48.4897 107.109 47.6864C106.602 48.2619 103.593 51.228 103.591 51.0269C103.577 49.67 103.709 47.9355 103.851 46.5871Z" fill="#263238"/>
</g>
</g>
</g>
</g>
</g>
</g>
</g>
</svg>
