<svg xmlns="http://www.w3.org/2000/svg" width="18" height="13" viewBox="0 0 18 13" fill="none">
  <path d="M6.6357 0.670435C6.56143 0.595058 6.47317 0.535248 6.37597 0.494437C6.27877 0.453625 6.17456 0.432617 6.06931 0.432617C5.96406 0.432617 5.85985 0.453625 5.76265 0.494437C5.66545 0.535248 5.57719 0.595058 5.50292 0.670435L0.187229 6.04444C0.12788 6.10426 0.0807939 6.17533 0.0486658 6.25358C0.0165378 6.33183 0 6.41572 0 6.50043C0 6.58515 0.0165378 6.66904 0.0486658 6.74729C0.0807939 6.82554 0.12788 6.89661 0.187229 6.95644L5.50292 12.3294C5.57719 12.4048 5.66545 12.4646 5.76265 12.5054C5.85985 12.5462 5.96406 12.5673 6.06931 12.5673C6.17456 12.5673 6.27877 12.5462 6.37597 12.5054C6.47317 12.4646 6.56143 12.4048 6.6357 12.3294C6.71028 12.2544 6.76945 12.1651 6.80982 12.0669C6.8502 11.9687 6.87098 11.8633 6.87098 11.7569C6.87098 11.6506 6.8502 11.5452 6.80982 11.447C6.76945 11.3487 6.71028 11.2595 6.6357 11.1844L2.00364 6.49644L6.64164 1.81044C6.71532 1.7352 6.77361 1.64602 6.81319 1.54801C6.85277 1.44999 6.87285 1.34506 6.8723 1.23919C6.87175 1.13333 6.85057 1.02861 6.80998 0.931025C6.76938 0.833436 6.71016 0.744887 6.6357 0.670435Z" fill="#979797"/>
  <path d="M1.45312 6.41406H16.4257" stroke="#979797" stroke-width="1.5" stroke-linecap="round"/>
</svg>