<svg xmlns="http://www.w3.org/2000/svg" width="19" height="19" viewBox="0 0 19 19" fill="none">
  <path d="M16.8301 5.65942L2.77344 2.01842L2.89248 1.46342C2.97858 1.13968 3.18731 0.86295 3.47375 0.692765C3.76019 0.522581 4.10146 0.472545 4.42413 0.553424L16.0444 3.56142C16.3656 3.64822 16.6401 3.85863 16.8089 4.14738C16.9777 4.43613 17.0274 4.78015 16.9471 5.10542L16.8301 5.65942Z" fill="black"/>
  <path d="M1.86991 10.5267C1.54876 10.4399 1.27424 10.2295 1.10541 9.94074C0.936588 9.65199 0.886952 9.30797 0.967183 8.9827L2.10599 4.4707L11.9268 7.0037H5.2913C4.64663 7.00686 4.02926 7.26641 3.57341 7.72594C3.11755 8.18548 2.86007 8.80783 2.85694 9.4577V10.8037L1.86991 10.5267Z" fill="black"/>
  <path d="M4.07043 9.45852C4.06816 9.2915 4.09912 9.12571 4.16148 8.97096C4.22384 8.8162 4.31633 8.67563 4.4335 8.55752C4.55067 8.43941 4.69013 8.34617 4.84364 8.28331C4.99716 8.22044 5.16161 8.18924 5.32729 8.19152H17.3414C17.5071 8.18924 17.6715 8.22044 17.8251 8.28331C17.9786 8.34617 18.118 8.43941 18.2352 8.55752C18.3524 8.67563 18.4449 8.8162 18.5072 8.97096C18.5696 9.12571 18.6005 9.2915 18.5983 9.45852V17.2165C18.6005 17.3835 18.5696 17.5493 18.5072 17.7041C18.4449 17.8588 18.3524 17.9994 18.2352 18.1175C18.118 18.2356 17.9786 18.3289 17.8251 18.3917C17.6715 18.4546 17.5071 18.4858 17.3414 18.4835H5.32729C5.16161 18.4858 4.99716 18.4546 4.84364 18.3917C4.69013 18.3289 4.55067 18.2356 4.4335 18.1175C4.31633 17.9994 4.22384 17.8588 4.16148 17.7041C4.09912 17.5493 4.06816 17.3835 4.07043 17.2165V9.45852Z" fill="black"/>
</svg>