<svg xmlns="http://www.w3.org/2000/svg" width="18" height="18" viewBox="0 0 18 18" fill="none">
  <path d="M15.8587 5.15747L1.83984 1.51647L1.95856 0.96147C2.04443 0.63773 2.2526 0.360997 2.53827 0.190812C2.82395 0.0206275 3.1643 -0.0294083 3.4861 0.0514704L15.0751 3.05947C15.3954 3.14627 15.6692 3.35668 15.8376 3.64543C16.0059 3.93418 16.0555 4.2782 15.9754 4.60347L15.8587 5.15747Z" fill="#928D8D"/>
  <path d="M0.937692 10.0247C0.617405 9.93795 0.343621 9.72754 0.175252 9.43879C0.00688245 9.15004 -0.042621 8.80602 0.037395 8.48075L1.17314 3.96875L10.9676 6.50175H4.34989C3.70696 6.5049 3.09124 6.76446 2.63661 7.22399C2.18198 7.68352 1.92519 8.30587 1.92207 8.95574V10.3018L0.937692 10.0247Z" fill="#928D8D"/>
  <path d="M3.13293 8.95755C3.13067 8.79053 3.16154 8.62473 3.22373 8.46998C3.28593 8.31523 3.37817 8.17465 3.49502 8.05654C3.61187 7.93843 3.75096 7.84519 3.90406 7.78233C4.05716 7.71947 4.22118 7.68826 4.38641 7.69055H16.3682C16.5335 7.68826 16.6975 7.71947 16.8506 7.78233C17.0037 7.84519 17.1428 7.93843 17.2596 8.05654C17.3765 8.17465 17.4687 8.31523 17.5309 8.46998C17.5931 8.62473 17.624 8.79053 17.6217 8.95755V16.7155C17.624 16.8826 17.5931 17.0483 17.5309 17.2031C17.4687 17.3578 17.3765 17.4984 17.2596 17.6165C17.1428 17.7347 17.0037 17.8279 16.8506 17.8907C16.6975 17.9536 16.5335 17.9848 16.3682 17.9825H4.38641C4.22118 17.9848 4.05716 17.9536 3.90406 17.8907C3.75096 17.8279 3.61187 17.7347 3.49502 17.6165C3.37817 17.4984 3.28593 17.3578 3.22373 17.2031C3.16154 17.0483 3.13067 16.8826 3.13293 16.7155V8.95755Z" fill="#928D8D"/>
</svg>