<svg xmlns="http://www.w3.org/2000/svg" width="22" height="22" viewBox="0 0 22 22" fill="none">
<path d="M13.7494 4.58355C13.6288 4.58285 13.5092 4.60598 13.3975 4.65159C13.2858 4.69721 13.1842 4.76443 13.0986 4.84939L7.59859 10.3494C7.42786 10.5211 7.33203 10.7535 7.33203 10.9956C7.33203 11.2378 7.42786 11.4701 7.59859 11.6419L13.0986 17.1419C13.274 17.2921 13.4995 17.3705 13.7302 17.3616C13.9609 17.3527 14.1798 17.2571 14.343 17.0938C14.5063 16.9306 14.6019 16.7117 14.6108 16.481C14.6197 16.2503 14.5413 16.0247 14.3911 15.8494L9.54192 11.0002L14.3911 6.15105C14.5198 6.02339 14.6078 5.86042 14.6439 5.68276C14.68 5.50509 14.6626 5.32072 14.5939 5.15294C14.5252 4.98516 14.4083 4.84151 14.258 4.74016C14.1077 4.63881 13.9307 4.58431 13.7494 4.58355Z" fill="#B2ADAD"/>
</svg>