<svg xmlns="http://www.w3.org/2000/svg" width="20" height="20" viewBox="0 0 20 20" fill="none">
  <path d="M16.3928 3.33702C14.6253 1.55543 12.2282 0.554594 9.72867 0.554688C7.22918 0.554781 4.8321 1.5558 3.06476 3.33752C1.29742 5.11925 0.304595 7.53573 0.304688 10.0554C0.304781 12.575 1.29779 14.9914 3.06526 16.773C4.83273 18.5546 7.22988 19.5554 9.72937 19.5554C12.2289 19.5553 14.6259 18.5542 16.3933 16.7725C18.1606 14.9908 19.1534 12.5743 19.1533 10.0547C19.1533 7.53502 18.1602 5.11861 16.3928 3.33702ZM10.3247 14.189H10.285V15.421C10.2882 15.4961 10.2763 15.571 10.2499 15.6413C10.2236 15.7116 10.1835 15.7758 10.1319 15.83C10.0803 15.8843 10.0184 15.9274 9.94983 15.9569C9.88128 15.9864 9.80752 16.0016 9.73299 16.0016C9.65845 16.0016 9.58469 15.9864 9.51614 15.9569C9.44759 15.9274 9.38566 15.8843 9.33409 15.83C9.28252 15.7758 9.24236 15.7116 9.21604 15.6413C9.18972 15.571 9.17778 15.4961 9.18094 15.421V14.189H7.95483C7.81246 14.1829 7.67794 14.1216 7.57934 14.0179C7.48074 13.9142 7.42569 13.7762 7.42569 13.6325C7.42569 13.4889 7.48074 13.3508 7.57934 13.2471C7.67794 13.1434 7.81246 13.0821 7.95483 13.076H10.3247C10.6488 13.076 10.9597 12.9462 11.1889 12.7152C11.4181 12.4841 11.5469 12.1708 11.5469 11.844C11.5469 11.5173 11.4181 11.2039 11.1889 10.9729C10.9597 10.7418 10.6488 10.612 10.3247 10.612H9.13431C8.51723 10.612 7.92541 10.3649 7.48906 9.92504C7.05272 9.48517 6.80758 8.88859 6.80758 8.26652C6.80758 7.64446 7.05272 7.04787 7.48906 6.608C7.92541 6.16813 8.51723 5.92102 9.13431 5.92102H9.17399V4.68902C9.18003 4.54551 9.24083 4.4099 9.3437 4.3105C9.44657 4.21111 9.58355 4.15562 9.72604 4.15562C9.86853 4.15562 10.0055 4.21111 10.1084 4.3105C10.2113 4.4099 10.2721 4.54551 10.2781 4.68902V5.92102H11.5002C11.5747 5.91784 11.649 5.92987 11.7188 5.95641C11.7885 5.98294 11.8522 6.02342 11.906 6.07541C11.9598 6.1274 12.0026 6.18982 12.0319 6.25893C12.0611 6.32803 12.0762 6.40239 12.0762 6.47752C12.0762 6.55265 12.0611 6.62701 12.0319 6.69611C12.0026 6.76522 11.9598 6.82764 11.906 6.87963C11.8522 6.93162 11.7885 6.9721 11.7188 6.99863C11.649 7.02517 11.5747 7.0372 11.5002 7.03402H9.13431C8.81018 7.03402 8.49932 7.16382 8.27013 7.39486C8.04093 7.62591 7.91217 7.93927 7.91217 8.26602C7.91217 8.59277 8.04093 8.90613 8.27013 9.13718C8.49932 9.36822 8.81018 9.49802 9.13431 9.49802H10.3247C10.9418 9.49802 11.5336 9.74513 11.97 10.185C12.4063 10.6249 12.6515 11.2215 12.6515 11.8435C12.6515 12.4656 12.4063 13.0622 11.97 13.502C11.5336 13.9419 10.9418 14.189 10.3247 14.189Z" fill="black"/>
</svg>