<svg xmlns="http://www.w3.org/2000/svg" width="20" height="23" viewBox="0 0 20 23" fill="none">
  <path d="M18.7069 9.99103L10.1571 1.34804C10.0396 1.21935 9.89759 1.11599 9.7396 1.04415C9.58162 0.972301 9.41091 0.933459 9.2377 0.929949C9.0645 0.926439 8.89238 0.958333 8.73167 1.02372C8.57096 1.0891 8.42499 1.18663 8.30249 1.31045C8.17999 1.43427 8.08351 1.58182 8.01882 1.74426C7.95413 1.9067 7.92257 2.08068 7.92604 2.25575C7.92951 2.43082 7.96794 2.60338 8.03902 2.76306C8.1101 2.92275 8.21236 3.06628 8.33967 3.18504L16.8905 11.828C17.0073 11.9591 17.1493 12.0647 17.3078 12.1385C17.4663 12.2123 17.638 12.2527 17.8125 12.2573C17.987 12.2619 18.1605 12.2305 18.3226 12.1651C18.4847 12.0998 18.6319 12.0017 18.7553 11.877C18.8787 11.7522 18.9757 11.6034 19.0404 11.4396C19.1051 11.2758 19.1361 11.1003 19.1316 10.924C19.1271 10.7477 19.0871 10.5741 19.0141 10.4139C18.941 10.2537 18.8365 10.1101 18.7069 9.99203V9.99103Z" fill="#928D8D"/>
  <path d="M7.70712 4.375L7.64283 4.701C7.16434 7.00539 6.11677 9.14995 4.59766 10.935L9.24752 15.635C10.9997 14.0921 13.1099 13.0229 15.3814 12.527L15.7049 12.462L7.70712 4.375Z" fill="#928D8D"/>
  <path d="M3.74317 11.9141L0.564441 15.1251C0.385495 15.3059 0.243544 15.5205 0.146696 15.7568C0.0498474 15.9931 0 16.2463 0 16.502C0 16.7578 0.0498474 17.011 0.146696 17.2473C0.243544 17.4836 0.385495 17.6983 0.564441 17.8791L2.38086 19.7151C2.55973 19.8959 2.77211 20.0394 3.00586 20.1373C3.23961 20.2352 3.49015 20.2856 3.74317 20.2856C3.99618 20.2856 4.24673 20.2352 4.48047 20.1373C4.71422 20.0394 4.9266 19.8959 5.10548 19.7151L8.28421 16.502L3.74317 11.9141ZM4.19727 16.963C4.07684 17.0848 3.91349 17.1532 3.74317 17.1532C3.57284 17.1532 3.4095 17.0848 3.28906 16.963C3.16863 16.8413 3.10097 16.6762 3.10097 16.5041C3.10097 16.3319 3.16863 16.1668 3.28906 16.045L4.19727 15.127C4.31771 15.0053 4.48106 14.9369 4.65138 14.9369C4.8217 14.9369 4.98504 15.0053 5.10548 15.127C5.22592 15.2488 5.29358 15.4139 5.29358 15.5861C5.29358 15.7582 5.22592 15.9233 5.10548 16.045L4.19727 16.963Z" fill="#928D8D"/>
  <path d="M10.9643 20.0616L11.8379 19.1785C12.017 18.9978 12.159 18.7832 12.256 18.5469C12.3529 18.3106 12.4028 18.0573 12.4028 17.8015C12.4028 17.5458 12.3529 17.2925 12.256 17.0562C12.159 16.8199 12.017 16.6053 11.8379 16.4245L11.1889 15.7686C10.8307 16.0131 10.4856 16.2768 10.1551 16.5585L10.9297 17.3425C10.9893 17.4027 11.0366 17.4742 11.0689 17.5529C11.1012 17.6315 11.1178 17.7159 11.1178 17.8011C11.1178 17.8862 11.1012 17.9706 11.0689 18.0492C11.0366 18.1279 10.9893 18.1994 10.9297 18.2596L10.0393 19.1595L8.73438 17.8815L6.91797 19.7175L9.83156 22.5715C10.0765 22.7944 10.3967 22.9137 10.7261 22.9049C11.0556 22.8961 11.3691 22.7598 11.602 22.5241C11.8349 22.2884 11.9694 21.9714 11.9778 21.6384C11.9861 21.3054 11.8677 20.9819 11.647 20.7345L10.9643 20.0616Z" fill="#928D8D"/>
  <path d="M13.56 0.791995C13.3897 0.791995 13.2264 0.860372 13.106 0.982083C12.9856 1.10379 12.918 1.26887 12.918 1.441V2.741C12.918 2.91339 12.9857 3.07872 13.1063 3.20061C13.2269 3.32251 13.3905 3.391 13.561 3.391C13.7316 3.391 13.8952 3.32251 14.0158 3.20061C14.1364 3.07872 14.2041 2.91339 14.2041 2.741V1.441C14.2041 1.3556 14.1874 1.27104 14.155 1.19217C14.1226 1.1133 14.0752 1.04167 14.0153 0.981374C13.9555 0.921083 13.8845 0.87332 13.8063 0.840822C13.7282 0.808325 13.6445 0.791732 13.56 0.791995Z" fill="#928D8D"/>
  <path d="M18.6987 5.98535H17.4126C17.242 5.98535 17.0785 6.05384 16.9579 6.17574C16.8373 6.29763 16.7695 6.46296 16.7695 6.63535C16.7695 6.80774 16.8373 6.97307 16.9579 7.09497C17.0785 7.21687 17.242 7.28535 17.4126 7.28535H18.6987C18.8693 7.28535 19.0329 7.21687 19.1535 7.09497C19.2741 6.97307 19.3418 6.80774 19.3418 6.63535C19.3418 6.46296 19.2741 6.29763 19.1535 6.17574C19.0329 6.05384 18.8693 5.98535 18.6987 5.98535Z" fill="#928D8D"/>
  <path d="M17.8668 2.28002C17.8072 2.21973 17.7364 2.1719 17.6585 2.13927C17.5806 2.10664 17.4971 2.08984 17.4127 2.08984C17.3284 2.08984 17.2449 2.10664 17.1669 2.13927C17.089 2.1719 17.0182 2.21973 16.9586 2.28002L15.6725 3.58002C15.6128 3.6403 15.5655 3.71185 15.5333 3.79061C15.501 3.86936 15.4844 3.95377 15.4844 4.03902C15.4844 4.12426 15.501 4.20867 15.5333 4.28743C15.5655 4.36619 15.6128 4.43774 15.6725 4.49802C15.7321 4.5583 15.8029 4.60611 15.8808 4.63873C15.9587 4.67135 16.0422 4.68814 16.1266 4.68814C16.2109 4.68814 16.2944 4.67135 16.3723 4.63873C16.4502 4.60611 16.521 4.5583 16.5807 4.49802L17.8668 3.19802C17.9264 3.13775 17.9738 3.06619 18.006 2.98744C18.0383 2.90868 18.055 2.82427 18.055 2.73902C18.055 2.65377 18.0383 2.56936 18.006 2.4906C17.9738 2.41184 17.9264 2.34029 17.8668 2.28002Z" fill="#928D8D"/>
</svg>