<svg xmlns="http://www.w3.org/2000/svg" width="20" height="13" viewBox="0 0 20 13" fill="none">
  <path d="M15.4644 8.29688C15.3517 8.29688 15.2415 8.33066 15.1478 8.39395C15.0541 8.45724 14.981 8.54719 14.9379 8.65244C14.8948 8.75769 14.8835 8.87353 14.9055 8.98526C14.9275 9.09699 14.9817 9.19963 15.0614 9.28018C15.1411 9.36074 15.2427 9.41558 15.3532 9.43781C15.4637 9.46003 15.5783 9.44863 15.6824 9.40503C15.7866 9.36143 15.8756 9.28759 15.9382 9.19287C16.0008 9.09815 16.0342 8.98679 16.0342 8.87286C16.034 8.72018 15.9739 8.57385 15.867 8.46588C15.7602 8.35792 15.6154 8.29714 15.4644 8.29688Z" fill="#928D8D"/>
  <path d="M18.8874 0.230469H5.74803V1.95947C5.74803 2.11223 5.68799 2.25874 5.58112 2.36676C5.47425 2.47478 5.32931 2.53547 5.17817 2.53547C5.02704 2.53547 4.88209 2.47478 4.77522 2.36676C4.66835 2.25874 4.60832 2.11223 4.60832 1.95947V0.230469H0.569857C0.418722 0.230469 0.273777 0.291157 0.166908 0.399178C0.0600391 0.507199 8.58875e-07 0.6537 8.58875e-07 0.806465V4.26347C8.58875e-07 4.41623 0.0600391 4.56274 0.166908 4.67076C0.273777 4.77878 0.418722 4.83947 0.569857 4.83947C1.01627 4.85032 1.44079 5.03719 1.75273 5.36017C2.06466 5.68314 2.23928 6.11661 2.23928 6.56797C2.23928 7.01933 2.06466 7.45279 1.75273 7.77576C1.44079 8.09874 1.01627 8.28562 0.569857 8.29647C0.494939 8.29647 0.420756 8.3114 0.351554 8.34041C0.282351 8.36942 0.219487 8.41194 0.166558 8.46553C0.113629 8.51912 0.071674 8.58273 0.0430943 8.65273C0.0145146 8.72273 -0.000129207 8.79774 8.58875e-07 8.87347V12.3305C8.58875e-07 12.4832 0.0600391 12.6297 0.166908 12.7378C0.273777 12.8458 0.418722 12.9065 0.569857 12.9065H4.55984V11.1775C4.55984 11.0247 4.61988 10.8782 4.72675 10.7702C4.83361 10.6622 4.97856 10.6015 5.12969 10.6015C5.28083 10.6015 5.42577 10.6622 5.53264 10.7702C5.63951 10.8782 5.69955 11.0247 5.69955 11.1775V12.9065H18.8874C19.0385 12.9065 19.1834 12.8458 19.2903 12.7378C19.3972 12.6297 19.4572 12.4832 19.4572 12.3305V0.806465C19.4572 0.6537 19.3972 0.507199 19.2903 0.399178C19.1834 0.291157 19.0385 0.230469 18.8874 0.230469ZM5.70054 8.87347C5.70054 9.02623 5.6405 9.17274 5.53363 9.28076C5.42676 9.38878 5.28182 9.44947 5.13068 9.44947C4.97955 9.44947 4.8346 9.38878 4.72773 9.28076C4.62087 9.17274 4.56083 9.02623 4.56083 8.87347V7.72047C4.56083 7.5677 4.62087 7.4212 4.72773 7.31318C4.8346 7.20516 4.97955 7.14447 5.13068 7.14447C5.28182 7.14447 5.42676 7.20516 5.53363 7.31318C5.6405 7.4212 5.70054 7.5677 5.70054 7.72047V8.87347ZM5.70054 5.41647C5.70054 5.56923 5.6405 5.71574 5.53363 5.82376C5.42676 5.93178 5.28182 5.99247 5.13068 5.99247C4.97955 5.99247 4.8346 5.93178 4.72773 5.82376C4.62087 5.71574 4.56083 5.56923 4.56083 5.41647V4.26347C4.56083 4.1107 4.62087 3.9642 4.72773 3.85618C4.8346 3.74816 4.97955 3.68747 5.13068 3.68747C5.28182 3.68747 5.42676 3.74816 5.53363 3.85618C5.6405 3.9642 5.70054 4.1107 5.70054 4.26347V5.41647ZM9.2008 4.26347C9.2008 3.9215 9.30112 3.58722 9.48908 3.30289C9.67704 3.01855 9.94419 2.79695 10.2568 2.66608C10.5693 2.53522 10.9133 2.50097 11.2451 2.56769C11.5769 2.6344 11.8817 2.79907 12.1209 3.04088C12.3601 3.28268 12.523 3.59076 12.589 3.92616C12.6551 4.26155 12.6212 4.60919 12.4917 4.92513C12.3622 5.24106 12.143 5.5111 11.8617 5.70108C11.5804 5.89107 11.2497 5.99247 10.9114 5.99247C10.4578 5.9922 10.0228 5.80996 9.7021 5.48576C9.38137 5.16157 9.20106 4.72194 9.2008 4.26347ZM10.5948 10.5045C10.5323 10.4625 10.4787 10.4085 10.4369 10.3456C10.3951 10.2827 10.3661 10.212 10.3513 10.1377C10.3366 10.0634 10.3366 9.98684 10.3512 9.9125C10.3658 9.83816 10.3948 9.76746 10.4365 9.70447L14.9963 2.79047C15.0378 2.7275 15.0912 2.67341 15.1534 2.63129C15.2156 2.58917 15.2854 2.55985 15.3588 2.54499C15.4322 2.53013 15.5078 2.53003 15.5812 2.5447C15.6546 2.55937 15.7245 2.58851 15.7868 2.63047C15.8491 2.67243 15.9026 2.72638 15.9443 2.78924C15.9859 2.8521 16.015 2.92264 16.0297 2.99683C16.0444 3.07103 16.0444 3.14742 16.0299 3.22165C16.0154 3.29588 15.9866 3.3665 15.9451 3.42947L11.3773 10.3455C11.3358 10.4085 11.2823 10.4627 11.22 10.5048C11.1577 10.5469 11.0878 10.5762 11.0142 10.591C10.9407 10.6057 10.865 10.6057 10.7915 10.5909C10.718 10.576 10.6481 10.5467 10.5859 10.5045H10.5948ZM15.4712 10.6045C15.1329 10.6045 14.8022 10.5031 14.5209 10.3131C14.2396 10.1231 14.0203 9.85306 13.8908 9.53712C13.7614 9.22119 13.7275 8.87355 13.7935 8.53815C13.8595 8.20276 14.0224 7.89468 14.2616 7.65288C14.5009 7.41107 14.8057 7.2464 15.1375 7.17969C15.4693 7.11297 15.8132 7.14722 16.1258 7.27808C16.4384 7.40895 16.7055 7.63055 16.8935 7.91489C17.0814 8.19922 17.1818 8.5335 17.1818 8.87547C17.1807 9.33412 16.9995 9.77358 16.678 10.0972C16.3565 10.4209 15.921 10.6023 15.4672 10.6015L15.4712 10.6045Z" fill="#928D8D"/>
  <path d="M10.9058 3.6875C10.7931 3.6875 10.6829 3.72128 10.5892 3.78458C10.4955 3.84787 10.4224 3.93783 10.3793 4.04308C10.3362 4.14833 10.3249 4.26414 10.3469 4.37587C10.3689 4.4876 10.4231 4.59024 10.5028 4.67079C10.5825 4.75135 10.6841 4.80621 10.7946 4.82843C10.9051 4.85066 11.0197 4.83925 11.1239 4.79565C11.228 4.75206 11.317 4.67823 11.3796 4.58351C11.4422 4.48879 11.4756 4.37743 11.4756 4.2635C11.4754 4.11082 11.4153 3.96445 11.3084 3.85649C11.2016 3.74853 11.0568 3.68776 10.9058 3.6875Z" fill="#928D8D"/>
</svg>