<svg xmlns="http://www.w3.org/2000/svg" width="19" height="20" viewBox="0 0 19 20" fill="none">
  <path d="M16.0448 3.76476C14.2821 1.98316 11.8914 0.982328 9.39865 0.982422C6.90588 0.982516 4.51524 1.98353 2.75266 3.76525C0.990067 5.54698 -9.27429e-05 7.96346 6.51537e-09 10.4831C9.27559e-05 13.0028 0.99043 15.4192 2.75315 17.2008C4.51587 18.9823 6.90658 19.9832 9.39935 19.9831C11.8921 19.983 14.2828 18.982 16.0453 17.2003C17.8079 15.4185 18.7981 13.002 18.798 10.4824C18.7979 7.96276 17.8076 5.54635 16.0448 3.76476ZM9.99309 14.6168H9.95352V15.8488C9.95667 15.9238 9.94476 15.9988 9.91851 16.069C9.89226 16.1393 9.85221 16.2035 9.80078 16.2578C9.74934 16.312 9.68759 16.3552 9.61922 16.3847C9.55085 16.4142 9.47729 16.4293 9.40295 16.4293C9.32862 16.4293 9.25506 16.4142 9.18669 16.3847C9.11832 16.3552 9.05656 16.312 9.00513 16.2578C8.9537 16.2035 8.91365 16.1393 8.8874 16.069C8.86115 15.9988 8.84924 15.9238 8.85239 15.8488V14.6168H7.62957C7.48759 14.6107 7.35343 14.5494 7.25509 14.4457C7.15676 14.342 7.10186 14.2039 7.10186 14.0603C7.10186 13.9166 7.15676 13.7785 7.25509 13.6748C7.35343 13.5711 7.48759 13.5098 7.62957 13.5038H9.99309C10.3164 13.5038 10.6264 13.374 10.855 13.1429C11.0835 12.9119 11.212 12.5985 11.212 12.2718C11.212 11.945 11.0835 11.6316 10.855 11.4006C10.6264 11.1696 10.3164 11.0398 9.99309 11.0398H8.80589C8.19046 11.0398 7.60024 10.7926 7.16506 10.3528C6.72989 9.91291 6.48541 9.31632 6.48541 8.69425C6.48541 8.07219 6.72989 7.4756 7.16506 7.03574C7.60024 6.59587 8.19046 6.34875 8.80589 6.34875H8.84546V5.11675C8.85148 4.97324 8.91212 4.83763 9.01472 4.73824C9.11731 4.63884 9.25392 4.58335 9.39603 4.58335C9.53814 4.58335 9.67475 4.63884 9.77734 4.73824C9.87994 4.83763 9.94057 4.97324 9.94659 5.11675V6.34875H11.1655C11.2397 6.34557 11.3139 6.35761 11.3834 6.38414C11.4529 6.41067 11.5164 6.45115 11.5701 6.50314C11.6238 6.55513 11.6665 6.61756 11.6956 6.68666C11.7248 6.75577 11.7399 6.83012 11.7399 6.90525C11.7399 6.98039 11.7248 7.05474 11.6956 7.12385C11.6665 7.19295 11.6238 7.25538 11.5701 7.30737C11.5164 7.35936 11.4529 7.39984 11.3834 7.42637C11.3139 7.4529 11.2397 7.46494 11.1655 7.46175H8.80589C8.48263 7.46175 8.17261 7.59155 7.94403 7.8226C7.71545 8.05364 7.58703 8.36701 7.58703 8.69375C7.58703 9.0205 7.71545 9.33387 7.94403 9.56491C8.17261 9.79595 8.48263 9.92575 8.80589 9.92575H9.99309C10.6085 9.92575 11.1987 10.1729 11.6339 10.6127C12.0691 11.0526 12.3136 11.6492 12.3136 12.2713C12.3136 12.8933 12.0691 13.4899 11.6339 13.9298C11.1987 14.3696 10.6085 14.6168 9.99309 14.6168Z" fill="#928D8D"/>
</svg>