<svg xmlns="http://www.w3.org/2000/svg" width="22" height="22" viewBox="0 0 22 22" fill="none">
  <path d="M17.8882 13.6131C17.6007 13.6124 17.3141 13.646 17.0344 13.7131L16.8821 13.2991C17.4303 13.1357 18.0072 13.0957 18.5723 13.1821C19.1374 13.2685 19.6769 13.4791 20.1528 13.7991C20.265 13.8699 20.4004 13.8928 20.5292 13.8627C20.6581 13.8326 20.7698 13.752 20.8399 13.6386C20.9099 13.5252 20.9326 13.3883 20.9028 13.2581C20.873 13.1278 20.7933 13.0149 20.6811 12.9441C19.5394 12.2886 18.2733 11.8851 16.9662 11.7601C17.0264 11.6452 17.0579 11.5171 17.0582 11.3871V10.7481C17.0582 10.3071 16.2519 9.94808 15.8156 9.94808H15.6523L15.4357 9.36109L14.472 9.22209C14.4484 9.16421 14.4178 9.10947 14.381 9.05908L11.8424 5.59208C11.4772 5.12509 11.013 4.74682 10.484 4.48509C10.0349 4.27689 9.52701 4.23733 9.05159 4.3735C8.57618 4.50967 8.16434 4.81266 7.89001 5.22808C6.91947 6.71408 5.74019 8.71108 5.46219 9.15008C5.31957 9.36198 5.26409 9.62165 5.30748 9.87416C5.35086 10.1267 5.48972 10.3522 5.69468 10.5031L7.36566 11.6621H0.201901C0.167199 11.6626 0.133191 11.672 0.10307 11.6894C0.0729487 11.7068 0.0477023 11.7317 0.0297014 11.7617C0.0117005 11.7917 0.00153543 11.8258 0.000160745 11.8609C-0.00121394 11.8959 0.00624681 11.9307 0.0218425 11.9621L0.632261 13.1061C0.647114 13.132 0.667369 13.1544 0.691626 13.1717C0.715883 13.189 0.743561 13.2007 0.772746 13.2061L3.48847 13.7501C2.8342 13.9413 2.24557 14.3129 1.7886 14.8234C1.33163 15.3338 1.02439 15.9628 0.901336 16.6399C0.778284 17.317 0.844288 18.0153 1.09195 18.6566C1.3396 19.2979 1.75912 19.8567 2.30344 20.2705C2.84776 20.6842 3.49536 20.9365 4.17361 20.999C4.85185 21.0615 5.53392 20.9318 6.1433 20.6244C6.75269 20.317 7.26529 19.8441 7.62362 19.2587C7.98195 18.6732 8.17183 17.9985 8.17197 17.3101C8.17197 17.2901 8.17197 17.2701 8.17197 17.2501H13.274C13.3176 17.251 13.3605 17.2377 13.3961 17.2121C13.4317 17.1865 13.4583 17.1501 13.4718 17.1081C13.6441 16.4011 13.9545 15.736 14.3849 15.1521C14.8153 14.5682 15.3569 14.0772 15.9778 13.7081L16.1114 14.0701C15.3337 14.5087 14.741 15.2188 14.444 16.0674C14.1471 16.916 14.1664 17.8449 14.4983 18.6801C14.8302 19.5154 15.452 20.1997 16.2471 20.6049C17.0423 21.0101 17.9563 21.1085 18.8181 20.8815C19.6798 20.6546 20.4301 20.1179 20.9285 19.372C21.427 18.6261 21.6393 17.7221 21.5258 16.8293C21.4122 15.9366 20.9806 15.1163 20.3118 14.522C19.6429 13.9278 18.7827 13.6004 17.8922 13.6011L17.8882 13.6131ZM4.50649 20.0131C4.02899 20.014 3.55999 19.8854 3.14831 19.6409C2.73663 19.3964 2.39733 19.0448 2.16572 18.6227C1.93411 18.2006 1.81867 17.7235 1.83141 17.241C1.84415 16.7586 1.98461 16.2884 2.23816 15.8794C2.49171 15.4704 2.84909 15.1376 3.27309 14.9156C3.69709 14.6936 4.17221 14.5906 4.64898 14.6172C5.12575 14.6438 5.58675 14.7991 5.98398 15.067C6.38121 15.3348 6.70015 15.7054 6.9076 16.1401L4.56783 17.0081C4.50638 17.0309 4.44997 17.0657 4.40182 17.1105C4.35367 17.1553 4.31472 17.2093 4.28721 17.2693C4.2597 17.3293 4.24415 17.3943 4.24146 17.4604C4.23877 17.5265 4.24898 17.5925 4.27152 17.6546C4.29406 17.7167 4.32849 17.7737 4.37283 17.8224C4.41717 17.8711 4.47057 17.9104 4.52996 17.9382C4.58935 17.966 4.65358 17.9818 4.71898 17.9845C4.78438 17.9872 4.84967 17.9769 4.91113 17.9541L7.16681 17.1171C7.16681 17.1831 7.17472 17.2481 7.17472 17.3171C7.17446 18.0323 6.89346 18.7182 6.3934 19.2242C5.89333 19.7302 5.21507 20.015 4.50748 20.0161L4.50649 20.0131ZM13.3531 11.6781C12.9233 11.6757 12.4984 11.7705 12.1095 11.9554C11.7206 12.1404 11.3775 12.4109 11.1053 12.7471L9.13657 10.9941L10.9401 7.39408L13.1938 10.0211C13.308 10.1529 13.4631 10.2416 13.6337 10.2727C13.8042 10.3038 13.9802 10.2753 14.1327 10.1921L14.7065 10.2751L15.216 11.6751L13.3531 11.6781ZM17.8922 20.0161C17.3158 20.0135 16.7557 19.8225 16.2956 19.4716C15.8355 19.1208 15.4999 18.6289 15.3391 18.0695C15.1783 17.51 15.2008 16.913 15.4033 16.3676C15.6058 15.8221 15.9774 15.3575 16.4626 15.0431L17.4242 17.6601C17.4703 17.7854 17.5637 17.8871 17.6839 17.9428C17.8041 17.9985 17.9413 18.0036 18.0653 17.9571C18.1893 17.9105 18.2899 17.8161 18.345 17.6946C18.4001 17.5731 18.4052 17.4344 18.3591 17.3091L17.3896 14.6711C17.7566 14.5959 18.1351 14.5995 18.5007 14.6817C18.8662 14.7639 19.2105 14.9229 19.5114 15.1484C19.8122 15.3738 20.0627 15.6606 20.2468 15.9903C20.4308 16.3199 20.5442 16.685 20.5796 17.0618C20.6151 17.4386 20.5717 17.8188 20.4524 18.1775C20.3331 18.5363 20.1404 18.8657 19.887 19.1444C19.6336 19.4231 19.3251 19.6448 18.9814 19.7951C18.6377 19.9455 18.2666 20.0211 17.8922 20.0171V20.0161Z" fill="#928D8D"/>
  <path d="M11.4979 4.47213C11.8455 4.51324 12.1975 4.44922 12.5092 4.28817C12.8208 4.12711 13.0783 3.87626 13.2489 3.56732C13.4195 3.25839 13.4957 2.90525 13.4678 2.55255C13.4399 2.19986 13.3091 1.86346 13.092 1.58588C12.875 1.3083 12.5814 1.10202 12.2483 0.993108C11.9153 0.8842 11.5577 0.87756 11.221 0.974027C10.8842 1.07049 10.5833 1.26574 10.3563 1.53507C10.1292 1.8044 9.98633 2.13572 9.94561 2.48713C9.91857 2.7205 9.93727 2.95696 10.0007 3.18301C10.064 3.40907 10.1708 3.62029 10.315 3.80462C10.4591 3.98895 10.6378 4.14277 10.8407 4.2573C11.0437 4.37184 11.267 4.44484 11.4979 4.47213Z" fill="#928D8D"/>
</svg>