<svg xmlns="http://www.w3.org/2000/svg" width="20" height="19" viewBox="0 0 20 19" fill="none">
  <path d="M16.1525 11.445C15.8929 11.4444 15.6341 11.4746 15.3815 11.535L15.2439 11.1622C15.7389 11.0151 16.2599 10.9791 16.7702 11.0569C17.2805 11.1347 17.7676 11.3243 18.1973 11.6125C18.2986 11.6763 18.4209 11.6969 18.5372 11.6698C18.6536 11.6426 18.7545 11.5701 18.8177 11.468C18.881 11.3659 18.9014 11.2426 18.8745 11.1253C18.8477 11.008 18.7756 10.9063 18.6744 10.8425C17.6435 10.2522 16.5002 9.88885 15.3199 9.77629C15.3742 9.67279 15.4028 9.5575 15.403 9.44039V8.86494C15.403 8.4678 14.6749 8.14451 14.2809 8.14451H14.1335L13.9379 7.6159L13.0678 7.49072C13.0464 7.4386 13.0188 7.38931 12.9856 7.34393L10.6933 4.22176C10.3635 3.80122 9.94438 3.46057 9.46675 3.22487C9.06117 3.03738 8.60258 3.00175 8.17329 3.12438C7.74401 3.247 7.37213 3.51986 7.12442 3.89396C6.24806 5.23217 5.1832 7.03054 4.93218 7.42588C4.8034 7.6167 4.7533 7.85055 4.79248 8.07794C4.83166 8.30533 4.95704 8.50844 5.14211 8.64431L6.65095 9.68804H0.18231C0.150976 9.68848 0.120267 9.69695 0.0930688 9.71264C0.0658703 9.72833 0.0430737 9.75074 0.0268194 9.77775C0.0105651 9.80475 0.00138645 9.83548 0.000145148 9.86705C-0.00109615 9.89861 0.00564066 9.92998 0.019723 9.9582L0.570911 10.9884C0.584323 11.0118 0.602613 11.032 0.624516 11.0475C0.646419 11.0631 0.671412 11.0736 0.697765 11.0785L3.14997 11.5684C2.55919 11.7405 2.02768 12.0752 1.61505 12.5349C1.20242 12.9946 0.924989 13.561 0.813877 14.1708C0.702765 14.7805 0.762364 15.4094 0.985991 15.9869C1.20962 16.5644 1.58843 17.0676 2.07993 17.4402C2.57144 17.8128 3.1562 18.04 3.76863 18.0963C4.38107 18.1526 4.99695 18.0358 5.5472 17.759C6.09746 17.4821 6.56032 17.0562 6.88388 16.5291C7.20744 16.0019 7.3789 15.3942 7.37902 14.7743C7.37902 14.7563 7.37902 14.7383 7.37902 14.7203H11.986C12.0254 14.7211 12.0641 14.7091 12.0962 14.686C12.1284 14.663 12.1524 14.6302 12.1646 14.5924C12.3202 13.9557 12.6005 13.3568 12.9891 12.831C13.3777 12.3051 13.8668 11.863 14.4274 11.5305L14.548 11.8565C13.8459 12.2515 13.3106 12.891 13.0425 13.6552C12.7744 14.4194 12.7918 15.2559 13.0915 16.0081C13.3912 16.7602 13.9526 17.3765 14.6706 17.7414C15.3886 18.1063 16.214 18.1949 16.9921 17.9905C17.7702 17.7861 18.4477 17.3028 18.8978 16.6311C19.3478 15.9594 19.5396 15.1453 19.4371 14.3414C19.3345 13.5374 18.9448 12.7987 18.3409 12.2635C17.7369 11.7284 16.9601 11.4335 16.156 11.4342L16.1525 11.445ZM4.06921 17.2085C3.63805 17.2092 3.21455 17.0935 2.84282 16.8733C2.47109 16.6531 2.16471 16.3364 1.95557 15.9564C1.74644 15.5763 1.6422 15.1466 1.6537 14.7121C1.66521 14.2776 1.79204 13.8542 2.02099 13.4859C2.24994 13.1176 2.57264 12.8179 2.95549 12.618C3.33835 12.4181 3.76737 12.3253 4.19788 12.3492C4.62839 12.3732 5.04465 12.5131 5.40334 12.7543C5.76203 12.9955 6.05002 13.3292 6.23734 13.7207L4.1246 14.5023C4.06911 14.5228 4.01817 14.5542 3.9747 14.5945C3.93122 14.6349 3.89605 14.6835 3.87121 14.7376C3.84637 14.7916 3.83233 14.8501 3.8299 14.9096C3.82747 14.9692 3.83669 15.0286 3.85705 15.0845C3.8774 15.1405 3.90848 15.1918 3.94852 15.2356C3.98856 15.2795 4.03677 15.3149 4.0904 15.34C4.14403 15.365 4.20203 15.3792 4.26109 15.3816C4.32014 15.3841 4.3791 15.3748 4.43459 15.3542L6.47139 14.6005C6.47139 14.6599 6.47854 14.7185 6.47854 14.7806C6.4783 15.4247 6.22457 16.0424 5.77303 16.498C5.32149 16.9537 4.70904 17.2102 4.07011 17.2112L4.06921 17.2085ZM12.0574 9.70244C11.6693 9.7003 11.2857 9.78563 10.9345 9.9522C10.5833 10.1188 10.2735 10.3623 10.0278 10.6651L8.25002 9.08648L9.87858 5.84453L11.9136 8.21025C12.0167 8.32897 12.1567 8.40886 12.3107 8.43684C12.4648 8.46482 12.6237 8.43922 12.7614 8.36424L13.2795 8.43899L13.7396 9.69974L12.0574 9.70244ZM16.156 17.2112C15.6356 17.2088 15.1299 17.0368 14.7144 16.7208C14.2989 16.4049 13.9959 15.962 13.8507 15.4582C13.7055 14.9544 13.7258 14.4167 13.9087 13.9255C14.0915 13.4343 14.427 13.0159 14.8652 12.7328L15.7335 15.0895C15.7751 15.2023 15.8594 15.2939 15.968 15.3441C16.0765 15.3942 16.2004 15.3989 16.3124 15.3569C16.4243 15.315 16.5152 15.23 16.5649 15.1206C16.6147 15.0111 16.6193 14.8862 16.5777 14.7734L15.7022 12.3978C16.0336 12.33 16.3754 12.3333 16.7055 12.4073C17.0356 12.4814 17.3465 12.6246 17.6181 12.8276C17.8897 13.0306 18.116 13.2889 18.2822 13.5858C18.4483 13.8826 18.5508 14.2114 18.5827 14.5507C18.6147 14.89 18.5756 15.2324 18.4678 15.5555C18.3601 15.8786 18.1862 16.1752 17.9573 16.4262C17.7285 16.6771 17.4499 16.8768 17.1396 17.0122C16.8293 17.1476 16.4942 17.2157 16.156 17.2121V17.2112Z" fill="black"/>
  <path d="M10.3812 3.21122C10.6952 3.24824 11.013 3.19059 11.2944 3.04555C11.5758 2.90052 11.8083 2.67461 11.9624 2.3964C12.1164 2.11819 12.1852 1.80018 12.16 1.48256C12.1348 1.16495 12.0167 0.862006 11.8207 0.612036C11.6247 0.362066 11.3596 0.176296 11.0589 0.0782195C10.7581 -0.0198571 10.4353 -0.0258363 10.1312 0.0610362C9.82709 0.147909 9.55538 0.323732 9.3504 0.566274C9.14542 0.808816 9.01637 1.10718 8.9796 1.42365C8.95518 1.6338 8.97207 1.84674 9.0293 2.05032C9.08653 2.25389 9.18297 2.4441 9.31313 2.6101C9.44329 2.77609 9.60461 2.91462 9.78788 3.01776C9.97115 3.1209 10.1728 3.18664 10.3812 3.21122Z" fill="black"/>
</svg>