<svg xmlns="http://www.w3.org/2000/svg" width="26" height="15" viewBox="0 0 26 15" fill="none">
  <path d="M20.2827 11.2695C20.1348 11.2695 19.9903 11.3137 19.8674 11.3965C19.7444 11.4793 19.6486 11.597 19.5921 11.7347C19.5355 11.8724 19.5207 12.024 19.5495 12.1701C19.5784 12.3163 19.6495 12.4506 19.7541 12.556C19.8586 12.6614 19.9918 12.7331 20.1368 12.7622C20.2819 12.7913 20.4322 12.7764 20.5688 12.7193C20.7054 12.6623 20.8221 12.5657 20.9043 12.4418C20.9864 12.3178 21.0303 12.1721 21.0303 12.0231C21.0299 11.8233 20.951 11.6319 20.8109 11.4906C20.6708 11.3494 20.4808 11.2699 20.2827 11.2695Z" fill="black"/>
  <path d="M24.7769 0.714844H7.54042V2.56561C7.54042 2.72913 7.46166 2.88596 7.32146 3.00159C7.18127 3.11722 6.99113 3.18218 6.79286 3.18218C6.5946 3.18218 6.40446 3.11722 6.26426 3.00159C6.12407 2.88596 6.04531 2.72913 6.04531 2.56561V0.714844H0.747553C0.54929 0.714844 0.359147 0.779806 0.218954 0.895434C0.0787609 1.01106 1.12669e-06 1.16788 1.12669e-06 1.33141V5.03188C1.12669e-06 5.1954 0.0787609 5.35223 0.218954 5.46785C0.359147 5.58348 0.54929 5.64845 0.747553 5.64845C1.33317 5.66006 1.89007 5.8601 2.29927 6.20582C2.70848 6.55154 2.93755 7.01553 2.93755 7.49868C2.93755 7.98183 2.70848 8.44582 2.29927 8.79154C1.89007 9.13726 1.33317 9.3373 0.747553 9.34891C0.649274 9.34891 0.551959 9.36489 0.461177 9.39595C0.370396 9.427 0.287928 9.47251 0.218495 9.52988C0.149061 9.58725 0.0940238 9.65534 0.0565322 9.73027C0.0190406 9.8052 -0.000169497 9.88549 1.12669e-06 9.96655V13.667C1.12669e-06 13.8305 0.0787609 13.9874 0.218954 14.103C0.359147 14.2186 0.54929 14.2836 0.747553 14.2836H5.98172V12.4328C5.98172 12.2693 6.06048 12.1125 6.20067 11.9968C6.34086 11.8812 6.53101 11.8162 6.72927 11.8162C6.92753 11.8162 7.11768 11.8812 7.25787 11.9968C7.39806 12.1125 7.47682 12.2693 7.47682 12.4328V14.2836H24.7769C24.9752 14.2836 25.1653 14.2186 25.3055 14.103C25.4457 13.9874 25.5245 13.8305 25.5245 13.667V1.33141C25.5245 1.16788 25.4457 1.01106 25.3055 0.895434C25.1653 0.779806 24.9752 0.714844 24.7769 0.714844ZM7.47812 9.96655C7.47812 10.1301 7.39936 10.2869 7.25917 10.4025C7.11897 10.5182 6.92883 10.5831 6.73057 10.5831C6.5323 10.5831 6.34216 10.5182 6.20197 10.4025C6.06177 10.2869 5.98302 10.1301 5.98302 9.96655V8.73234C5.98302 8.56882 6.06177 8.412 6.20197 8.29637C6.34216 8.18074 6.5323 8.11578 6.73057 8.11578C6.92883 8.11578 7.11897 8.18074 7.25917 8.29637C7.39936 8.412 7.47812 8.56882 7.47812 8.73234V9.96655ZM7.47812 6.26608C7.47812 6.4296 7.39936 6.58643 7.25917 6.70206C7.11897 6.81769 6.92883 6.88265 6.73057 6.88265C6.5323 6.88265 6.34216 6.81769 6.20197 6.70206C6.06177 6.58643 5.98302 6.4296 5.98302 6.26608V5.03188C5.98302 4.86835 6.06177 4.71153 6.20197 4.5959C6.34216 4.48027 6.5323 4.41531 6.73057 4.41531C6.92883 4.41531 7.11897 4.48027 7.25917 4.5959C7.39936 4.71153 7.47812 4.86835 7.47812 5.03188V6.26608ZM12.0699 5.03188C12.0699 4.66583 12.2015 4.308 12.448 4.00364C12.6946 3.69929 13.0451 3.46207 13.4551 3.32199C13.8651 3.18191 14.3163 3.14526 14.7516 3.21667C15.1869 3.28808 15.5867 3.46435 15.9005 3.72318C16.2143 3.98202 16.4281 4.31179 16.5146 4.67081C16.6012 5.02982 16.5568 5.40195 16.387 5.74013C16.2171 6.07832 15.9295 6.36737 15.5605 6.57074C15.1915 6.7741 14.7576 6.88265 14.3138 6.88265C13.7188 6.88236 13.1482 6.68728 12.7275 6.34026C12.3067 5.99323 12.0702 5.52264 12.0699 5.03188ZM13.8985 11.7124C13.8166 11.6675 13.7462 11.6097 13.6914 11.5424C13.6366 11.475 13.5985 11.3993 13.5792 11.3198C13.5599 11.2402 13.5598 11.1583 13.579 11.0788C13.5981 10.9992 13.6362 10.9235 13.6908 10.8561L19.6726 3.45514C19.727 3.38773 19.797 3.32984 19.8786 3.28475C19.9602 3.23967 20.0518 3.20828 20.148 3.19237C20.2443 3.17647 20.3435 3.17636 20.4398 3.19206C20.5362 3.20776 20.6278 3.23896 20.7095 3.28387C20.7913 3.32878 20.8615 3.38653 20.9161 3.45382C20.9708 3.52111 21.0088 3.59662 21.0281 3.67604C21.0474 3.75546 21.0475 3.83723 21.0285 3.91669C21.0095 3.99615 20.9716 4.07174 20.9172 4.13914L14.9251 11.5422C14.8706 11.6097 14.8004 11.6677 14.7187 11.7127C14.6369 11.7578 14.5452 11.7892 14.4488 11.805C14.3523 11.8208 14.253 11.8208 14.1566 11.8049C14.0602 11.789 13.9685 11.7576 13.8868 11.7124H13.8985ZM20.2955 11.8195C19.8517 11.8195 19.4179 11.7109 19.0489 11.5075C18.6798 11.3042 18.3922 11.0151 18.2224 10.6769C18.0525 10.3388 18.0081 9.96663 18.0947 9.60762C18.1813 9.24861 18.395 8.91883 18.7088 8.65999C19.0226 8.40116 19.4225 8.22489 19.8578 8.15348C20.293 8.08207 20.7442 8.11872 21.1542 8.2588C21.5643 8.39889 21.9147 8.6361 22.1613 8.94046C22.4079 9.24481 22.5395 9.60264 22.5395 9.96869C22.5381 10.4596 22.3004 10.93 21.8786 11.2765C21.4569 11.623 20.8856 11.8171 20.2903 11.8162L20.2955 11.8195Z" fill="black"/>
  <path d="M14.2944 5.23828C14.1465 5.23828 14.002 5.28248 13.8791 5.36529C13.7561 5.44809 13.6604 5.56578 13.6038 5.70348C13.5472 5.84118 13.5324 5.9927 13.5612 6.13888C13.5901 6.28506 13.6613 6.41933 13.7658 6.52472C13.8704 6.63011 14.0036 6.70188 14.1486 6.73096C14.2936 6.76004 14.4439 6.74512 14.5805 6.68808C14.7171 6.63104 14.8338 6.53446 14.916 6.41053C14.9981 6.28661 15.042 6.14091 15.042 5.99187C15.0416 5.79211 14.9628 5.60062 14.8226 5.45937C14.6825 5.31812 14.4926 5.23863 14.2944 5.23828Z" fill="black"/>
</svg>