<svg xmlns="http://www.w3.org/2000/svg" width="20" height="21" viewBox="0 0 20 21" fill="none">
  <path d="M8.53516 6.56183C8.53516 7.99238 11.3581 8.74115 14.146 8.74115C16.9339 8.74115 19.7568 7.99238 19.7568 6.56183C19.7568 3.70074 8.53516 3.70074 8.53516 6.56183Z" fill="black"/>
  <path d="M19.5457 8.6723C19.4822 8.63357 19.4098 8.61197 19.3355 8.6096C19.2613 8.60722 19.1877 8.62413 19.1218 8.65872C15.9222 9.92985 12.3634 9.92985 9.16387 8.65872C9.09816 8.62485 9.02493 8.60852 8.95118 8.61127C8.87743 8.61402 8.80561 8.63577 8.74257 8.67444C8.67952 8.71312 8.62736 8.76743 8.59104 8.8322C8.55473 8.89697 8.5355 8.97004 8.53516 9.04444V9.17571C8.53516 10.6063 11.3581 11.355 14.146 11.355C16.9339 11.355 19.7568 10.6063 19.7568 9.17571V9.04444C19.7564 8.96933 19.7368 8.89558 19.6998 8.83038C19.6629 8.76518 19.6098 8.71072 19.5457 8.6723Z" fill="black"/>
  <path d="M3.35156 15.2792C3.35156 16.7098 6.17449 17.4585 8.9624 17.4585C11.7503 17.4585 14.5732 16.7098 14.5732 15.2792C14.5732 12.4199 3.35156 12.4199 3.35156 15.2792Z" fill="black"/>
  <path d="M14.367 17.387C14.3034 17.3484 14.231 17.3268 14.1568 17.3244C14.0825 17.3221 14.0089 17.3389 13.943 17.3734C12.3772 18.0703 10.6739 18.3965 8.96361 18.3268C7.25336 18.3965 5.55001 18.0703 3.98419 17.3734C3.91848 17.3396 3.84526 17.3232 3.77151 17.326C3.69776 17.3287 3.62594 17.3505 3.56289 17.3892C3.49985 17.4278 3.44768 17.4822 3.41137 17.5469C3.37506 17.6117 3.35581 17.6848 3.35547 17.7592V17.8904C3.35547 19.321 6.1784 20.0697 8.9663 20.0697C11.7542 20.0697 14.5771 19.321 14.5771 17.8904V17.7592C14.5769 17.6841 14.5574 17.6104 14.5206 17.5452C14.4837 17.48 14.4308 17.4255 14.367 17.387Z" fill="black"/>
  <path d="M6.37646 5.25287C6.95539 5.25302 7.53385 5.21976 8.10902 5.15327C8.20148 5.14276 8.28811 5.10243 8.35601 5.03828C9.2875 4.29662 10.4088 3.83694 11.5894 3.71277C11.6654 3.7 11.7366 3.667 11.7956 3.61717C11.8547 3.56734 11.8995 3.50251 11.9253 3.42938C11.9678 3.31557 11.9903 3.19515 11.9918 3.07355C11.9873 0.212462 0.765625 0.212462 0.765625 3.07355C0.765625 4.50409 3.58856 5.25287 6.37646 5.25287Z" fill="black"/>
  <path d="M6.37646 7.86906C6.73572 7.86906 7.08242 7.85638 7.42013 7.83375C7.48723 7.82909 7.55234 7.80874 7.61029 7.7743C7.66823 7.73986 7.71741 7.69228 7.75394 7.63534C7.79046 7.5784 7.81332 7.51365 7.8207 7.44625C7.82808 7.37885 7.81978 7.31065 7.79646 7.24705C7.71163 7.02063 7.66989 6.78012 7.67341 6.53811C7.6734 6.4792 7.66154 6.4209 7.63854 6.36674C7.61553 6.31259 7.58187 6.26369 7.53958 6.22303C7.49804 6.18144 7.44823 6.1492 7.39342 6.12844C7.33861 6.10769 7.28006 6.09889 7.22163 6.10261C6.93961 6.1162 6.65758 6.12524 6.37736 6.12524C4.66597 6.19574 2.96133 5.8699 1.39434 5.17276C1.32863 5.13889 1.25541 5.12255 1.18166 5.1253C1.10791 5.12805 1.03609 5.1498 0.973045 5.18848C0.910001 5.22715 0.857836 5.28147 0.821526 5.34623C0.785215 5.411 0.76597 5.48406 0.765625 5.55846V5.68975C0.765625 7.12029 3.58856 7.86906 6.37646 7.86906Z" fill="black"/>
  <path d="M6.37646 10.4823C6.73572 10.4823 7.08242 10.4697 7.42013 10.447C7.48723 10.4424 7.55234 10.422 7.61029 10.3876C7.66823 10.3531 7.71741 10.3056 7.75394 10.2486C7.79046 10.1917 7.81332 10.1269 7.8207 10.0595C7.82808 9.99214 7.81978 9.92394 7.79646 9.86034C7.71203 9.63375 7.66971 9.39343 7.67161 9.1514C7.67161 9.09249 7.65974 9.03419 7.63674 8.98003C7.61374 8.92588 7.58007 8.87699 7.53778 8.83632C7.49595 8.79515 7.44609 8.76318 7.39135 8.74245C7.33662 8.72172 7.27821 8.71268 7.21983 8.7159C6.93871 8.72948 6.65758 8.73854 6.37736 8.73854C4.66597 8.80903 2.96133 8.48319 1.39434 7.78605C1.32863 7.75218 1.25541 7.73583 1.18166 7.73858C1.10791 7.74133 1.03609 7.76308 0.973045 7.80176C0.910001 7.84043 0.857836 7.89475 0.821526 7.95952C0.785215 8.02428 0.76597 8.09735 0.765625 8.17175L0.765625 8.30304C0.765625 9.73358 3.58856 10.4823 6.37646 10.4823Z" fill="black"/>
  <path d="M19.5482 13.9033C19.4848 13.8642 19.4124 13.8424 19.3381 13.8401C19.2637 13.8377 19.1901 13.8548 19.1243 13.8897C18.0851 14.3811 16.9649 14.6751 15.8199 14.7571C15.7057 14.785 15.6048 14.8528 15.5353 14.9484C15.4658 15.044 15.4321 15.1613 15.44 15.2795C15.4403 15.499 15.4039 15.7169 15.3322 15.9242C15.3098 15.9897 15.3032 16.0597 15.313 16.1284C15.3228 16.197 15.3487 16.2623 15.3886 16.3188C15.4285 16.3753 15.4812 16.4214 15.5423 16.4532C15.6034 16.4851 15.6712 16.5017 15.74 16.5018H15.7867C18.2719 16.2302 19.7566 15.4488 19.7566 14.4103V14.2791C19.7571 14.2036 19.7382 14.1293 19.7017 14.0634C19.6652 13.9976 19.6123 13.9424 19.5482 13.9033Z" fill="black"/>
  <path d="M8.96779 12.2286L9.25431 12.2341H9.2615C9.36067 12.2348 9.45706 12.2011 9.53449 12.1386C9.61193 12.0762 9.6657 11.9888 9.68677 11.8911C9.70783 11.7934 9.69492 11.6914 9.65019 11.6021C9.60546 11.5129 9.53165 11.4419 9.44113 11.4011L9.35131 11.3594C9.28934 11.3323 9.22827 11.3051 9.17168 11.2743C9.10591 11.2404 9.0326 11.2241 8.95878 11.2269C8.88495 11.2297 8.81308 11.2515 8.75001 11.2903C8.68694 11.3291 8.63479 11.3835 8.59854 11.4484C8.5623 11.5133 8.54316 11.5864 8.54297 11.6609V11.7922C8.54272 11.9066 8.58715 12.0165 8.66664 12.0982C8.74614 12.1799 8.85431 12.2267 8.96779 12.2286Z" fill="black"/>
  <path d="M19.551 11.2875C19.4874 11.2488 19.415 11.2272 19.3408 11.2248C19.2665 11.2225 19.1929 11.2394 19.127 11.274C17.5612 11.9709 15.8579 12.297 14.1476 12.2274L13.8629 12.2219C13.7642 12.2228 13.6687 12.2568 13.5914 12.3186C13.5141 12.3805 13.4595 12.4666 13.4362 12.5633C13.4145 12.6608 13.4268 12.7629 13.471 12.8525C13.5151 12.942 13.5885 13.0135 13.6788 13.0549C14.0986 13.2374 14.4828 13.4941 14.8132 13.8127C14.8941 13.8944 15.004 13.9403 15.1185 13.9404H15.1455C17.2732 13.8046 19.7584 13.1599 19.7584 11.7937V11.6624C19.7589 11.5872 19.7401 11.5131 19.7037 11.4474C19.6673 11.3817 19.6147 11.3266 19.551 11.2875Z" fill="black"/>
  <path d="M4.37535 12.9635C4.42979 12.9635 4.48374 12.9531 4.53432 12.9327C5.4208 12.6001 6.3482 12.3912 7.29079 12.3116C7.40654 12.279 7.50762 12.2072 7.57698 12.1082C7.64634 12.0093 7.67976 11.8893 7.67161 11.7684C7.67153 11.7098 7.65973 11.6517 7.63692 11.5978C7.6141 11.5439 7.58074 11.4951 7.53883 11.4545C7.49691 11.4138 7.4473 11.3821 7.39296 11.3612C7.33861 11.3403 7.28065 11.3307 7.22253 11.3329C6.9414 11.3465 6.66028 11.3555 6.38005 11.3555C4.66797 11.4273 2.96237 11.1024 1.39434 10.4058C1.32866 10.3716 1.25538 10.3551 1.18153 10.3577C1.10768 10.3603 1.03574 10.382 0.972618 10.4208C0.909493 10.4595 0.857302 10.5139 0.821054 10.5788C0.784807 10.6438 0.76572 10.717 0.765625 10.7915L0.765625 10.9227C0.765625 11.8861 2.09221 12.6484 4.31517 12.9626C4.33518 12.9644 4.35529 12.9647 4.37535 12.9635Z" fill="black"/>
</svg>