<svg xmlns="http://www.w3.org/2000/svg" width="21" height="23" viewBox="0 0 21 23" fill="none">
  <path d="M8.55859 7.20594C8.55859 8.78594 11.6681 9.61294 14.739 9.61294C17.8098 9.61294 20.9193 8.78594 20.9193 7.20594C20.9193 4.04594 8.55859 4.04594 8.55859 7.20594Z" fill="#928D8D"/>
  <path d="M20.6907 9.5363C20.6207 9.49352 20.541 9.46967 20.4592 9.46704C20.3774 9.46441 20.2963 9.4831 20.2238 9.5213C16.6994 10.9252 12.7794 10.9252 9.25503 9.5213C9.18265 9.48389 9.10199 9.46585 9.02076 9.46889C8.93952 9.47193 8.86041 9.49595 8.79096 9.53866C8.72152 9.58138 8.66406 9.64137 8.62406 9.71291C8.58407 9.78444 8.56288 9.86514 8.5625 9.94731V10.0923C8.5625 11.6723 11.672 12.4993 14.7429 12.4993C17.8138 12.4993 20.9232 11.6723 20.9232 10.0923V9.94731C20.9228 9.86435 20.9012 9.78291 20.8605 9.71089C20.8197 9.63887 20.7613 9.57873 20.6907 9.5363Z" fill="#928D8D"/>
  <path d="M2.85156 16.8333C2.85156 18.4133 5.96104 19.2403 9.03193 19.2403C12.1028 19.2403 15.2123 18.4133 15.2123 16.8333C15.2123 13.6753 2.85156 13.6753 2.85156 16.8333Z" fill="#928D8D"/>
  <path d="M14.9847 19.1651C14.9146 19.1224 14.8349 19.0986 14.7532 19.0959C14.6714 19.0933 14.5903 19.1119 14.5177 19.1501C12.793 19.9198 10.9167 20.28 9.03287 20.2031C7.14902 20.28 5.27276 19.9198 3.54801 19.1501C3.47563 19.1126 3.39498 19.0946 3.31374 19.0977C3.2325 19.1007 3.15339 19.1247 3.08395 19.1674C3.0145 19.2101 2.95704 19.2701 2.91705 19.3417C2.87705 19.4132 2.85585 19.4939 2.85547 19.5761V19.7211C2.85547 21.3011 5.96494 22.1281 9.03584 22.1281C12.1067 22.1281 15.2162 21.3011 15.2162 19.7211V19.5761C15.2159 19.4932 15.1944 19.4118 15.1539 19.3398C15.1133 19.2678 15.055 19.2076 14.9847 19.1651Z" fill="#928D8D"/>
  <path d="M6.18037 5.76137C6.81806 5.76154 7.45525 5.72482 8.08879 5.65137C8.19064 5.63976 8.28607 5.59522 8.36086 5.52437C9.38689 4.70522 10.622 4.19752 11.9225 4.06038C12.0061 4.04628 12.0846 4.00982 12.1496 3.95479C12.2147 3.89976 12.264 3.82815 12.2925 3.74738C12.3393 3.62168 12.3641 3.48868 12.3657 3.35438C12.3607 0.194375 0 0.194375 0 3.35438C0 4.93438 3.10947 5.76137 6.18037 5.76137Z" fill="#928D8D"/>
  <path d="M6.18037 8.64989C6.5761 8.64989 6.95798 8.63589 7.32997 8.61089C7.40389 8.60574 7.47561 8.58327 7.53943 8.54523C7.60326 8.50719 7.65744 8.45464 7.69767 8.39175C7.7379 8.32886 7.76308 8.25735 7.77121 8.18291C7.77934 8.10847 7.77019 8.03314 7.7445 7.96289C7.65107 7.71281 7.60509 7.44718 7.60896 7.17989C7.60896 7.11482 7.59589 7.05043 7.57055 6.99062C7.54521 6.9308 7.50813 6.8768 7.46155 6.83189C7.4158 6.78595 7.36092 6.75034 7.30055 6.72742C7.24018 6.70449 7.17569 6.69477 7.11133 6.69889C6.80068 6.71389 6.49003 6.72389 6.18135 6.72389C4.29626 6.80174 2.41858 6.44187 0.692533 5.67189C0.620156 5.63448 0.539504 5.61643 0.458267 5.61947C0.37703 5.62251 0.297918 5.64653 0.228474 5.68925C0.159031 5.73197 0.101571 5.79195 0.061575 5.86349C0.021579 5.93502 0.000380193 6.01572 0 6.09789L0 6.24289C0 7.82289 3.10947 8.64989 6.18037 8.64989Z" fill="#928D8D"/>
  <path d="M6.18037 11.5366C6.5761 11.5366 6.95798 11.5226 7.32997 11.4976C7.40389 11.4925 7.47561 11.47 7.53943 11.432C7.60326 11.3939 7.65744 11.3414 7.69767 11.2785C7.7379 11.2156 7.76308 11.1441 7.77121 11.0696C7.77934 10.9952 7.77019 10.9199 7.7445 10.8496C7.65151 10.5994 7.60489 10.3339 7.60698 10.0666C7.60698 10.0015 7.59391 9.93716 7.56857 9.87734C7.54324 9.81753 7.50615 9.76353 7.45957 9.71862C7.41349 9.67315 7.35857 9.63783 7.29828 9.61494C7.23799 9.59204 7.17366 9.58206 7.10935 9.58561C6.79969 9.60061 6.49003 9.61062 6.18135 9.61062C4.29626 9.68848 2.41858 9.32859 0.692533 8.55862C0.620156 8.52121 0.539504 8.50315 0.458267 8.50619C0.37703 8.50923 0.297918 8.53325 0.228474 8.57597C0.159031 8.61868 0.101571 8.67867 0.061575 8.75021C0.021579 8.82174 0.000380193 8.90244 0 8.98461L0 9.12962C0 10.7096 3.10947 11.5366 6.18037 11.5366Z" fill="#928D8D"/>
  <path d="M20.6895 15.3142C20.6196 15.2711 20.5399 15.247 20.458 15.2444C20.3761 15.2418 20.295 15.2607 20.2225 15.2993C19.0778 15.8419 17.844 16.1667 16.5828 16.2572C16.4569 16.2881 16.3459 16.3629 16.2693 16.4685C16.1927 16.5741 16.1555 16.7036 16.1643 16.8343C16.1646 17.0766 16.1245 17.3173 16.0456 17.5462C16.0209 17.6186 16.0136 17.696 16.0244 17.7718C16.0352 17.8476 16.0637 17.9197 16.1077 17.9821C16.1516 18.0445 16.2097 18.0954 16.277 18.1306C16.3443 18.1657 16.419 18.1841 16.4948 18.1842H16.5462C19.2837 17.8842 20.919 17.0212 20.919 15.8742V15.7292C20.9196 15.6459 20.8988 15.5638 20.8586 15.4911C20.8183 15.4183 20.7601 15.3574 20.6895 15.3142Z" fill="#928D8D"/>
  <path d="M9.03435 13.4642L9.34995 13.4702H9.35788C9.46711 13.471 9.57328 13.4337 9.65857 13.3648C9.74387 13.2958 9.8031 13.1993 9.82631 13.0914C9.84951 12.9835 9.83528 12.8708 9.78602 12.7722C9.73675 12.6737 9.65544 12.5953 9.55574 12.5502L9.4568 12.5042C9.38854 12.4742 9.32127 12.4442 9.25894 12.4102C9.18649 12.3727 9.10574 12.3547 9.02442 12.3578C8.9431 12.3608 8.86393 12.3849 8.79446 12.4278C8.72499 12.4706 8.66755 12.5307 8.62762 12.6024C8.5877 12.6741 8.56662 12.7549 8.56641 12.8372V12.9822C8.56613 13.1085 8.61507 13.2299 8.70263 13.3201C8.7902 13.4103 8.90935 13.4621 9.03435 13.4642Z" fill="#928D8D"/>
  <path d="M20.6883 12.425C20.6183 12.3822 20.5386 12.3583 20.4568 12.3557C20.375 12.3531 20.2939 12.3718 20.2213 12.41C18.4966 13.1797 16.6204 13.5399 14.7365 13.463L14.4229 13.457C14.3142 13.4579 14.2089 13.4955 14.1238 13.5638C14.0387 13.6321 13.9785 13.7272 13.9529 13.834C13.929 13.9417 13.9425 14.0545 13.9912 14.1534C14.0398 14.2523 14.1207 14.3312 14.2201 14.377C14.6826 14.5786 15.1057 14.862 15.4696 15.214C15.5588 15.3042 15.6798 15.3549 15.806 15.355H15.8357C18.1794 15.205 20.9169 14.493 20.9169 12.984V12.839C20.9174 12.7559 20.8966 12.6741 20.8566 12.6015C20.8165 12.529 20.7586 12.4682 20.6883 12.425Z" fill="#928D8D"/>
  <path d="M3.97613 14.2768C4.0361 14.2768 4.09553 14.2653 4.15124 14.2428C5.1277 13.8755 6.14923 13.6447 7.18751 13.5568C7.31501 13.5208 7.42634 13.4415 7.50275 13.3322C7.57915 13.2229 7.61597 13.0903 7.60698 12.9568C7.6069 12.8921 7.5939 12.828 7.56877 12.7684C7.54364 12.7088 7.50689 12.655 7.46072 12.6101C7.41455 12.5652 7.35991 12.5302 7.30005 12.5071C7.24019 12.484 7.17634 12.4734 7.11232 12.4758C6.80266 12.4908 6.49299 12.5008 6.18432 12.5008C4.29846 12.5801 2.41973 12.2212 0.692533 11.4518C0.62019 11.4141 0.539471 11.3958 0.458125 11.3987C0.376779 11.4016 0.297537 11.4256 0.228004 11.4684C0.158471 11.5112 0.100982 11.5713 0.0610556 11.643C0.0211287 11.7147 0.000104184 11.7955 0 11.8778L0 12.0228C0 13.0868 1.46125 13.9288 3.90985 14.2758C3.93189 14.2778 3.95404 14.2781 3.97613 14.2768Z" fill="#928D8D"/>
</svg>
