<svg xmlns="http://www.w3.org/2000/svg" width="16" height="19" viewBox="0 0 16 19" fill="none">
  <path d="M14.8482 7.53369L8.36097 0.454007C8.27183 0.3486 8.16408 0.263932 8.04421 0.205083C7.92434 0.146234 7.79481 0.114417 7.66339 0.111542C7.53198 0.108667 7.40138 0.134792 7.27944 0.188351C7.1575 0.241909 7.04674 0.321796 6.9538 0.423219C6.86085 0.524641 6.78764 0.645508 6.73856 0.778566C6.68948 0.911625 6.66553 1.05413 6.66816 1.19754C6.6708 1.34094 6.69996 1.48229 6.75389 1.61309C6.80782 1.74389 6.88541 1.86146 6.98201 1.95874L13.47 9.03842C13.5586 9.14576 13.6663 9.23229 13.7866 9.29274C13.9069 9.35319 14.0372 9.3863 14.1696 9.39005C14.3019 9.3938 14.4336 9.36811 14.5566 9.31456C14.6796 9.261 14.7913 9.18069 14.8849 9.07852C14.9786 8.97634 15.0521 8.85445 15.1012 8.72025C15.1503 8.58605 15.1738 8.44235 15.1704 8.2979C15.167 8.15346 15.1366 8.01129 15.0812 7.88005C15.0258 7.74881 14.9465 7.63124 14.8482 7.53451V7.53369Z" fill="black"/>
  <path d="M6.49603 2.93555L6.44725 3.20258C6.0842 5.09016 5.28935 6.84682 4.13672 8.309L7.66482 12.1589C8.9943 10.8951 10.5954 10.0192 12.3189 9.61304L12.5644 9.5598L6.49603 2.93555Z" fill="black"/>
  <path d="M3.50029 9.11133L1.08843 11.7415C0.952652 11.8896 0.844946 12.0655 0.771462 12.259C0.697978 12.4525 0.660156 12.66 0.660156 12.8695C0.660156 13.0789 0.697978 13.2864 0.771462 13.4799C0.844946 13.6735 0.952652 13.8493 1.08843 13.9974L2.46664 15.5013C2.60236 15.6495 2.7635 15.767 2.94086 15.8472C3.11822 15.9274 3.30832 15.9686 3.50029 15.9686C3.69227 15.9686 3.88237 15.9274 4.05973 15.8472C4.23709 15.767 4.39823 15.6495 4.53396 15.5013L6.94582 12.8695L3.50029 9.11133ZM3.84485 13.2471C3.75347 13.3468 3.62953 13.4028 3.50029 13.4028C3.37106 13.4028 3.24712 13.3468 3.15574 13.2471C3.06436 13.1474 3.01303 13.0121 3.01303 12.8711C3.01303 12.7301 3.06436 12.5948 3.15574 12.4951L3.84485 11.7432C3.93623 11.6434 4.06017 11.5874 4.1894 11.5874C4.31863 11.5874 4.44257 11.6434 4.53396 11.7432C4.62534 11.8429 4.67667 11.9781 4.67667 12.1191C4.67667 12.2602 4.62534 12.3954 4.53396 12.4951L3.84485 13.2471Z" fill="black"/>
  <path d="M8.97644 15.786L9.63929 15.0627C9.77515 14.9147 9.88293 14.7389 9.95647 14.5453C10.03 14.3518 10.0679 14.1443 10.0679 13.9348C10.0679 13.7253 10.03 13.5178 9.95647 13.3243C9.88293 13.1307 9.77515 12.9549 9.63929 12.8069L9.14685 12.2695C8.87502 12.4699 8.61317 12.6859 8.36241 12.9166L8.95018 13.5588C8.99542 13.6081 9.0313 13.6667 9.05579 13.7311C9.08027 13.7955 9.09286 13.8646 9.09286 13.9344C9.09286 14.0042 9.08027 14.0732 9.05579 14.1377C9.0313 14.2021 8.99542 14.2607 8.95018 14.31L8.27458 15.0472L7.28446 14.0003L5.90625 15.5042L8.11695 17.842C8.30279 18.0246 8.54575 18.1223 8.79571 18.1151C9.04567 18.1079 9.28354 17.9962 9.46026 17.8032C9.63697 17.6101 9.73903 17.3504 9.74539 17.0777C9.75174 16.8049 9.6619 16.5399 9.4944 16.3373L8.97644 15.786Z" fill="black"/>
  <path d="M10.9598 2.52449e-06C10.8306 2.52449e-06 10.7067 0.0560114 10.6153 0.155708C10.524 0.255404 10.4727 0.390622 10.4727 0.531614V1.59647C10.4727 1.73768 10.5241 1.87311 10.6156 1.97296C10.7071 2.07281 10.8312 2.1289 10.9606 2.1289C11.09 2.1289 11.2141 2.07281 11.3056 1.97296C11.3971 1.87311 11.4485 1.73768 11.4485 1.59647V0.531614C11.4485 0.461664 11.4359 0.392401 11.4113 0.327796C11.3867 0.263191 11.3507 0.204514 11.3053 0.155127C11.2599 0.105741 11.206 0.0666173 11.1467 0.0399978C11.0874 0.0133784 11.0239 -0.000213039 10.9598 2.52449e-06Z" fill="black"/>
  <path d="M14.8505 4.25195H13.8746C13.7452 4.25195 13.6211 4.30805 13.5296 4.4079C13.4381 4.50775 13.3867 4.64318 13.3867 4.78438C13.3867 4.92559 13.4381 5.06102 13.5296 5.16087C13.6211 5.26072 13.7452 5.31682 13.8746 5.31682H14.8505C14.9799 5.31682 15.104 5.26072 15.1955 5.16087C15.287 5.06102 15.3384 4.92559 15.3384 4.78438C15.3384 4.64318 15.287 4.50775 15.1955 4.4079C15.104 4.30805 14.9799 4.25195 14.8505 4.25195Z" fill="black"/>
  <path d="M14.2139 1.21828C14.1687 1.16889 14.115 1.12971 14.0559 1.10299C13.9967 1.07626 13.9334 1.0625 13.8694 1.0625C13.8054 1.0625 13.742 1.07626 13.6829 1.10299C13.6238 1.12971 13.5701 1.16889 13.5248 1.21828L12.549 2.28314C12.5037 2.33251 12.4678 2.39113 12.4433 2.45564C12.4189 2.52015 12.4062 2.58929 12.4062 2.65912C12.4062 2.72894 12.4189 2.79808 12.4433 2.86259C12.4678 2.9271 12.5037 2.98572 12.549 3.03509C12.5942 3.08447 12.6479 3.12363 12.7071 3.15036C12.7662 3.17708 12.8295 3.19083 12.8935 3.19083C12.9575 3.19083 13.0209 3.17708 13.08 3.15036C13.1391 3.12363 13.1928 3.08447 13.2381 3.03509L14.2139 1.97023C14.2592 1.92087 14.2951 1.86225 14.3196 1.79774C14.3441 1.73323 14.3567 1.66408 14.3567 1.59426C14.3567 1.52443 14.3441 1.45528 14.3196 1.39077C14.2951 1.32626 14.2592 1.26764 14.2139 1.21828Z" fill="black"/>
</svg>