<svg xmlns="http://www.w3.org/2000/svg" width="18" height="15" viewBox="0 0 18 15" fill="none">
  <path d="M16.419 12.8428V0.300781L15.9439 0.340781C14.0398 0.499345 12.1723 0.958266 10.4095 1.70078L9.57422 2.05078V14.5428L10.1823 14.2878C12.0064 13.5239 13.9376 13.0516 15.9062 12.8878L16.419 12.8428Z" fill="black"/>
  <path d="M17.9742 2.1582H17.0407V13.1312C17.041 13.2102 17.0118 13.2863 16.9588 13.3445C16.9059 13.4027 16.8331 13.4387 16.755 13.4452L15.9614 13.5112C15.7313 13.5305 15.5021 13.5542 15.274 13.5822C15.1996 13.5912 15.1262 13.6032 15.0528 13.6132C14.899 13.6342 14.7452 13.6552 14.5915 13.6792C14.5022 13.6932 14.4129 13.7102 14.3246 13.7262C14.1877 13.7502 14.0498 13.7742 13.9129 13.8012C13.8197 13.8202 13.7264 13.8412 13.6312 13.8612C13.5013 13.8892 13.3703 13.9172 13.2414 13.9482C13.1422 13.9712 13.043 13.9962 12.9507 14.0212C12.8247 14.0522 12.6997 14.0862 12.5747 14.1212C12.4755 14.1482 12.3763 14.1762 12.2831 14.2052C12.1591 14.2422 12.0361 14.2802 11.9131 14.3192L11.6244 14.4132C11.5014 14.4552 11.3791 14.4985 11.2574 14.5432L10.9756 14.6432L10.8477 14.6942H17.9782L17.9742 2.1582Z" fill="black"/>
  <path d="M2.58064 0.340781L2.10547 0.300781V12.8438L2.65801 12.8908C4.62542 13.0563 6.55487 13.5321 8.3759 14.3008L8.94928 14.5418V2.05078L8.115 1.70078C6.35219 0.958266 4.48466 0.499345 2.58064 0.340781Z" fill="black"/>
  <path d="M0.550781 2.1582V14.6992H7.68624L7.57117 14.6582C7.48189 14.6242 7.39261 14.5912 7.30233 14.5582C7.17635 14.5122 7.04937 14.4672 6.9224 14.4242L6.64563 14.3322C6.51931 14.2902 6.39267 14.2509 6.26569 14.2142L5.98595 14.1322C5.85798 14.0962 5.73001 14.0622 5.60105 14.0322C5.51078 14.0022 5.41158 13.9772 5.31933 13.9582C5.18937 13.9272 5.05744 13.8982 4.92253 13.8692C4.82928 13.8492 4.73603 13.8282 4.64278 13.8092C4.50688 13.7822 4.37097 13.7582 4.23507 13.7342L3.96723 13.6872C3.81645 13.6632 3.66963 13.6432 3.51488 13.6222C3.43849 13.6122 3.3631 13.5992 3.28672 13.5912C3.05856 13.5632 2.8304 13.5395 2.60224 13.5202L1.76499 13.4482C1.6871 13.4414 1.61459 13.4054 1.56185 13.3472C1.50911 13.289 1.48 13.213 1.48029 13.1342V2.1582H0.550781Z" fill="black"/>
</svg>