<svg xmlns="http://www.w3.org/2000/svg" width="16" height="17" viewBox="0 0 16 17" fill="none">
  <path d="M9.61038 7.47725C9.53534 7.47725 9.46337 7.44712 9.41031 7.39348C9.35725 7.33985 9.32744 7.2671 9.32744 7.19125V0.90625H6.50091V7.19225C6.50091 7.2681 6.4711 7.34085 6.41804 7.39448C6.36497 7.44812 6.293 7.47825 6.21796 7.47825H0V10.3352H6.21895C6.29399 10.3352 6.36596 10.3654 6.41902 10.419C6.47209 10.4727 6.5019 10.5454 6.5019 10.6213V16.9062H9.32842V10.6202C9.32842 10.5444 9.35824 10.4717 9.4113 10.418C9.46436 10.3644 9.53633 10.3343 9.61137 10.3343H15.8293V7.47725H9.61038Z" fill="#928D8D"/>
</svg>