<svg xmlns="http://www.w3.org/2000/svg" width="16" height="16" viewBox="0 0 16 16" fill="none">
  <path d="M9.63629 6.571C9.56104 6.571 9.48888 6.54087 9.43567 6.48723C9.38247 6.4336 9.35258 6.36085 9.35258 6.285V0H6.51843V6.286C6.51843 6.36185 6.48854 6.4346 6.43533 6.48823C6.38213 6.54187 6.30996 6.572 6.23472 6.572H0V9.429H6.23571C6.31096 9.429 6.38312 9.45913 6.43633 9.51277C6.48953 9.5664 6.51942 9.63915 6.51942 9.715V16H9.35357V9.714C9.35357 9.63815 9.38346 9.5654 9.43667 9.51177C9.48987 9.45813 9.56203 9.428 9.63728 9.428H15.872V6.571H9.63629Z" fill="black"/>
</svg>