<svg xmlns="http://www.w3.org/2000/svg" width="18" height="16" viewBox="0 0 18 16" fill="none">
  <path d="M15.8225 13.249V0.707031L15.3486 0.747031C13.4497 0.905595 11.5872 1.36452 9.82911 2.10703L8.99609 2.45703V14.949L9.60256 14.694C11.4218 13.9301 13.3477 13.4578 15.311 13.294L15.8225 13.249Z" fill="#928D8D"/>
  <path d="M17.3769 2.56445H16.446V13.5375C16.4462 13.6164 16.4171 13.6926 16.3643 13.7508C16.3114 13.809 16.2389 13.8449 16.161 13.8515L15.3695 13.9175C15.14 13.9368 14.9115 13.9605 14.6839 13.9885C14.6097 13.9975 14.5365 14.0095 14.4633 14.0195C14.31 14.0405 14.1566 14.0615 14.0033 14.0855C13.9143 14.0995 13.8252 14.1165 13.7371 14.1325C13.6006 14.1565 13.4631 14.1805 13.3266 14.2075C13.2336 14.2265 13.1406 14.2475 13.0456 14.2675C12.916 14.2955 12.7854 14.3235 12.6568 14.3545C12.5579 14.3775 12.459 14.4025 12.3669 14.4275C12.2413 14.4585 12.1166 14.4925 11.992 14.5275C11.893 14.5545 11.7941 14.5825 11.7011 14.6115C11.5775 14.6485 11.4548 14.6865 11.3321 14.7255L11.0442 14.8195C10.9215 14.8615 10.7995 14.9048 10.6782 14.9495L10.3972 15.0495L10.2695 15.1005H17.3809L17.3769 2.56445Z" fill="#928D8D"/>
  <path d="M2.02467 0.747031L1.55078 0.707031V13.25L2.10184 13.297C4.06396 13.4625 5.98822 13.9383 7.80436 14.707L8.37619 14.948V2.45703L7.54416 2.10703C5.78609 1.36452 3.92358 0.905595 2.02467 0.747031Z" fill="#928D8D"/>
  <path d="M0 2.56445V15.1055H7.11627L7.00151 15.0645C6.91247 15.0305 6.82343 14.9975 6.7334 14.9645C6.60776 14.9185 6.48112 14.8735 6.35449 14.8305L6.07846 14.7385C5.95249 14.6965 5.82618 14.6571 5.69955 14.6205L5.42056 14.5385C5.29293 14.5025 5.16531 14.4685 5.0367 14.4385C4.94667 14.4085 4.84773 14.3835 4.75573 14.3645C4.62612 14.3335 4.49454 14.3045 4.35999 14.2755C4.26699 14.2555 4.174 14.2345 4.081 14.2155C3.94546 14.1885 3.80992 14.1645 3.67438 14.1405L3.40726 14.0935C3.25689 14.0695 3.11046 14.0495 2.95613 14.0285C2.87995 14.0185 2.80476 14.0055 2.72858 13.9975C2.50103 13.9695 2.27349 13.9458 2.04594 13.9265L1.21094 13.8545C1.13327 13.8477 1.06095 13.8116 1.00835 13.7535C0.955754 13.6953 0.926717 13.6193 0.927005 13.5405V2.56445H0Z" fill="#928D8D"/>
</svg>