<svg xmlns="http://www.w3.org/2000/svg" width="16" height="16" viewBox="0 0 16 16" fill="none">
  <path d="M9.9987 0.666992H2.66536C1.93203 0.666992 1.33203 1.26699 1.33203 2.00033V10.667C1.33203 11.0337 1.63203 11.3337 1.9987 11.3337C2.36536 11.3337 2.66536 11.0337 2.66536 10.667V2.66699C2.66536 2.30033 2.96536 2.00033 3.33203 2.00033H9.9987C10.3654 2.00033 10.6654 1.70033 10.6654 1.33366C10.6654 0.966992 10.3654 0.666992 9.9987 0.666992ZM10.392 3.72699L13.612 6.94699C13.8587 7.19366 13.9987 7.53366 13.9987 7.88699V14.0003C13.9987 14.7337 13.3987 15.3337 12.6654 15.3337H5.32536C4.59203 15.3337 3.9987 14.7337 3.9987 14.0003L4.00536 4.66699C4.00536 3.93366 4.5987 3.33366 5.33203 3.33366H9.44536C9.7987 3.33366 10.1387 3.47366 10.392 3.72699ZM9.9987 8.00033H12.9987L9.33203 4.33366V7.33366C9.33203 7.70033 9.63203 8.00033 9.9987 8.00033Z" fill="#837E7E"/>
</svg>