<svg width="21" height="20" viewBox="0 0 21 20" fill="none" xmlns="http://www.w3.org/2000/svg">
<g id="account_balance_wallet" clip-path="url(#clip0_32637_4371)">
<path id="Vector" d="M8.83333 13.3333V6.66667C8.83333 5.75 9.575 5 10.5 5H18V4.16667C18 3.25 17.25 2.5 16.3333 2.5H4.66667C3.74167 2.5 3 3.25 3 4.16667V15.8333C3 16.75 3.74167 17.5 4.66667 17.5H16.3333C17.25 17.5 18 16.75 18 15.8333V15H10.5C9.575 15 8.83333 14.25 8.83333 13.3333ZM11.3333 6.66667C10.875 6.66667 10.5 7.04167 10.5 7.5V12.5C10.5 12.9583 10.875 13.3333 11.3333 13.3333H18.8333V6.66667H11.3333ZM13.8333 11.25C13.1417 11.25 12.5833 10.6917 12.5833 10C12.5833 9.30833 13.1417 8.75 13.8333 8.75C14.525 8.75 15.0833 9.30833 15.0833 10C15.0833 10.6917 14.525 11.25 13.8333 11.25Z" fill="#D1276B"/>
</g>
<defs>
<clipPath id="clip0_32637_4371">
<rect width="20" height="20" fill="white" transform="translate(0.5)"/>
</clipPath>
</defs>
</svg>
