<svg width="16" height="17" viewBox="0 0 16 17" fill="none" xmlns="http://www.w3.org/2000/svg">
<g clip-path="url(#clip0_32547_4942)">
<path d="M7.99203 1.83301C4.31203 1.83301 1.33203 4.81967 1.33203 8.49967C1.33203 12.1797 4.31203 15.1663 7.99203 15.1663C11.6787 15.1663 14.6654 12.1797 14.6654 8.49967C14.6654 4.81967 11.6787 1.83301 7.99203 1.83301ZM12.612 5.83301H10.6454C10.432 4.99967 10.1254 4.19967 9.72536 3.45967C10.952 3.87967 11.972 4.73301 12.612 5.83301ZM7.9987 3.19301C8.55203 3.99301 8.98536 4.87967 9.27203 5.83301H6.72536C7.01203 4.87967 7.44536 3.99301 7.9987 3.19301ZM2.8387 9.83301C2.73203 9.40634 2.66536 8.95967 2.66536 8.49967C2.66536 8.03967 2.73203 7.59301 2.8387 7.16634H5.09203C5.0387 7.60634 4.9987 8.04634 4.9987 8.49967C4.9987 8.95301 5.0387 9.39301 5.09203 9.83301H2.8387ZM3.38536 11.1663H5.35203C5.56536 11.9997 5.87203 12.7997 6.27203 13.5397C5.04536 13.1197 4.02536 12.273 3.38536 11.1663ZM5.35203 5.83301H3.38536C4.02536 4.72634 5.04536 3.87967 6.27203 3.45967C5.87203 4.19967 5.56536 4.99967 5.35203 5.83301ZM7.9987 13.8063C7.44536 13.0063 7.01203 12.1197 6.72536 11.1663H9.27203C8.98536 12.1197 8.55203 13.0063 7.9987 13.8063ZM9.5587 9.83301H6.4387C6.3787 9.39301 6.33203 8.95301 6.33203 8.49967C6.33203 8.04634 6.3787 7.59967 6.4387 7.16634H9.5587C9.6187 7.59967 9.66537 8.04634 9.66537 8.49967C9.66537 8.95301 9.6187 9.39301 9.5587 9.83301ZM9.72536 13.5397C10.1254 12.7997 10.432 11.9997 10.6454 11.1663H12.612C11.972 12.2663 10.952 13.1197 9.72536 13.5397ZM10.9054 9.83301C10.9587 9.39301 10.9987 8.95301 10.9987 8.49967C10.9987 8.04634 10.9587 7.60634 10.9054 7.16634H13.1587C13.2654 7.59301 13.332 8.03967 13.332 8.49967C13.332 8.95967 13.2654 9.40634 13.1587 9.83301H10.9054Z" fill="#837E7E"/>
</g>
<defs>
<clipPath id="clip0_32547_4942">
<rect width="16" height="16" fill="white" transform="translate(0 0.5)"/>
</clipPath>
</defs>
</svg>
