<svg xmlns="http://www.w3.org/2000/svg" width="16" height="16" viewBox="0 0 16 16" fill="none">
  <path d="M12.0013 5.33366H11.3346V4.00033C11.3346 2.16033 9.8413 0.666992 8.0013 0.666992C6.1613 0.666992 4.66797 2.16033 4.66797 4.00033V5.33366H4.0013C3.26797 5.33366 2.66797 5.93366 2.66797 6.66699V13.3337C2.66797 14.067 3.26797 14.667 4.0013 14.667H12.0013C12.7346 14.667 13.3346 14.067 13.3346 13.3337V6.66699C13.3346 5.93366 12.7346 5.33366 12.0013 5.33366ZM8.0013 11.3337C7.26797 11.3337 6.66797 10.7337 6.66797 10.0003C6.66797 9.26699 7.26797 8.66699 8.0013 8.66699C8.73463 8.66699 9.33463 9.26699 9.33463 10.0003C9.33463 10.7337 8.73463 11.3337 8.0013 11.3337ZM6.0013 5.33366V4.00033C6.0013 2.89366 6.89464 2.00033 8.0013 2.00033C9.10797 2.00033 10.0013 2.89366 10.0013 4.00033V5.33366H6.0013Z" fill="#837E7E"/>
</svg>