<svg xmlns="http://www.w3.org/2000/svg" width="21" height="21" viewBox="0 0 21 21" fill="none">
<path d="M12.8524 11.4163C12.6252 11.4163 12.4073 11.5075 12.2466 11.6699C12.0859 11.8323 11.9957 12.0526 11.9957 12.2823V15.7463C11.9954 15.9759 11.9051 16.196 11.7444 16.3584C11.5838 16.5207 11.3661 16.612 11.1389 16.6123H8.56763V3.6223C8.56645 3.25932 8.45338 2.90573 8.24415 2.61073C8.03492 2.31572 7.73993 2.09396 7.40021 1.9763L7.14695 1.8903H11.1379C11.3651 1.89056 11.5828 1.98189 11.7434 2.14423C11.9041 2.30658 11.9944 2.5267 11.9947 2.7563V5.3543C11.9947 5.58397 12.0849 5.80424 12.2456 5.96665C12.4063 6.12906 12.6242 6.2203 12.8514 6.2203C13.0787 6.2203 13.2966 6.12906 13.4573 5.96665C13.6179 5.80424 13.7082 5.58397 13.7082 5.3543V2.7543C13.7082 2.06473 13.4372 1.40341 12.9548 0.915819C12.4724 0.428225 11.8181 0.154297 11.1359 0.154297L1.92821 0.154297C1.89714 0.158456 1.8664 0.164805 1.8362 0.173297C1.79465 0.173297 1.75508 0.154297 1.71353 0.154297C1.48824 0.154559 1.26522 0.199671 1.05718 0.287055C0.849147 0.374439 0.660177 0.502385 0.501061 0.663588C0.341946 0.82479 0.215801 1.01609 0.129829 1.22657C0.0438566 1.43705 -0.00025885 1.66258 1.14252e-06 1.8903V17.4793C0.00117708 17.8423 0.114244 18.1959 0.323475 18.4909C0.532706 18.7859 0.827697 19.0076 1.16741 19.1253L6.32382 20.8623C6.49581 20.9164 6.67496 20.9437 6.85509 20.9433C7.30922 20.9425 7.7445 20.7597 8.06552 20.4351C8.38654 20.1104 8.56711 19.6703 8.56763 19.2113V18.3453H11.1399C11.8221 18.3453 12.4764 18.0714 12.9588 17.5838C13.4412 17.0962 13.7122 16.4349 13.7122 15.7453V12.2823C13.7122 12.1686 13.69 12.056 13.6469 11.9509C13.6039 11.8458 13.5408 11.7504 13.4612 11.6699C13.3817 11.5895 13.2872 11.5257 13.1833 11.4822C13.0793 11.4387 12.9679 11.4163 12.8554 11.4163H12.8524Z" fill="#F05757"/>
<path d="M20.3078 8.20557L16.8807 4.74157C16.7609 4.6206 16.6083 4.53824 16.4422 4.50488C16.2761 4.47153 16.1039 4.48867 15.9475 4.55416C15.791 4.61965 15.6572 4.73054 15.5631 4.87282C15.4689 5.0151 15.4186 5.18239 15.4185 5.35357V7.95358H11.9974C11.7702 7.95358 11.5522 8.04481 11.3916 8.20721C11.2309 8.36962 11.1406 8.5899 11.1406 8.81957C11.1406 9.04925 11.2309 9.26952 11.3916 9.43192C11.5522 9.59433 11.7702 9.68557 11.9974 9.68557H15.4244V12.2856C15.4246 12.4567 15.4749 12.624 15.569 12.7663C15.6632 12.9086 15.797 13.0195 15.9534 13.085C16.1099 13.1505 16.282 13.1676 16.4481 13.1343C16.6143 13.1009 16.7668 13.0185 16.8867 12.8976L20.3137 9.43357C20.3935 9.35277 20.4566 9.2568 20.4996 9.15121C20.5425 9.04561 20.5643 8.93248 20.5637 8.81832C20.5632 8.70417 20.5403 8.59125 20.4964 8.48608C20.4524 8.38092 20.3883 8.28559 20.3078 8.20557Z" fill="#F05757"/>
</svg>