<svg width="21" height="20" viewBox="0 0 21 20" fill="none" xmlns="http://www.w3.org/2000/svg">
<g id="message" clip-path="url(#clip0_32556_5747)">
<path id="Vector" d="M17.168 1.66699H3.83464C2.91797 1.66699 2.1763 2.41699 2.1763 3.33366L2.16797 18.3337L5.5013 15.0003H17.168C18.0846 15.0003 18.8346 14.2503 18.8346 13.3337V3.33366C18.8346 2.41699 18.0846 1.66699 17.168 1.66699ZM14.668 11.667H6.33464C5.8763 11.667 5.5013 11.292 5.5013 10.8337C5.5013 10.3753 5.8763 10.0003 6.33464 10.0003H14.668C15.1263 10.0003 15.5013 10.3753 15.5013 10.8337C15.5013 11.292 15.1263 11.667 14.668 11.667ZM14.668 9.16699H6.33464C5.8763 9.16699 5.5013 8.79199 5.5013 8.33366C5.5013 7.87533 5.8763 7.50033 6.33464 7.50033H14.668C15.1263 7.50033 15.5013 7.87533 15.5013 8.33366C15.5013 8.79199 15.1263 9.16699 14.668 9.16699ZM14.668 6.66699H6.33464C5.8763 6.66699 5.5013 6.29199 5.5013 5.83366C5.5013 5.37533 5.8763 5.00033 6.33464 5.00033H14.668C15.1263 5.00033 15.5013 5.37533 15.5013 5.83366C15.5013 6.29199 15.1263 6.66699 14.668 6.66699Z" fill="#D1276B"/>
</g>
<defs>
<clipPath id="clip0_32556_5747">
<rect width="20" height="20" fill="white" transform="translate(0.5)"/>
</clipPath>
</defs>
</svg>
