<svg xmlns="http://www.w3.org/2000/svg" width="21" height="22" viewBox="0 0 21 22" fill="none">
  <g clip-path="url(#clip0_32592_4179)">
    <path d="M17.3133 2.75195H3.46267C1.5582 2.75195 0 4.32695 0 6.25195V15.002C0 16.927 1.5582 18.502 3.46267 18.502H17.3133C19.2178 18.502 20.776 16.927 20.776 15.002V6.25195C20.776 4.32695 19.2178 2.75195 17.3133 2.75195ZM18.6984 7.82695L11.8596 12.4645C11.4268 12.727 10.9074 12.902 10.388 12.902C9.8686 12.902 9.3492 12.727 8.91637 12.4645L2.0776 7.82695C1.73133 7.56445 1.64477 7.03945 1.90447 6.60195C2.16417 6.25195 2.68357 6.16445 3.1164 6.42695L9.95517 11.0645C10.2149 11.2395 10.6477 11.2395 10.9074 11.0645L17.7462 6.42695C18.179 6.16445 18.6984 6.25195 18.9581 6.68945C19.1312 7.03945 19.0447 7.56445 18.6984 7.82695Z" fill="#928D8D"/>
  </g>
  <defs>
    <clipPath id="clip0_32592_4179">
      <rect width="20.776" height="21" fill="white" transform="translate(0 0.126953)"/>
    </clipPath>
  </defs>
</svg>