<svg xmlns="http://www.w3.org/2000/svg" width="16" height="16" viewBox="0 0 16 16" fill="none">
  <g clip-path="url(#clip0_32556_5670)">
    <path d="M11.9987 10.667V7.33366C11.9987 5.28699 10.9053 3.57366 8.99868 3.12033V2.66699C8.99868 2.11366 8.54535 1.66699 7.99202 1.66699C7.43868 1.66699 6.99868 2.11366 6.99868 2.66699V3.12033C5.08535 3.57366 3.99868 5.28033 3.99868 7.33366V10.667L3.13202 11.527C2.71202 11.947 3.00535 12.667 3.59868 12.667H12.3787C12.972 12.667 13.272 11.947 12.852 11.527L11.9987 10.667ZM7.99202 14.667C8.72535 14.667 9.32535 14.067 9.32535 13.3337H6.65868C6.65868 14.067 7.25202 14.667 7.99202 14.667ZM4.51202 3.15366C4.79202 2.90033 4.79868 2.46699 4.53202 2.20033C4.27868 1.94699 3.86535 1.94033 3.60535 2.18699C2.46535 3.22699 1.67868 4.64033 1.42535 6.22699C1.36535 6.63366 1.67868 7.00033 2.09202 7.00033C2.41202 7.00033 2.69202 6.76699 2.74535 6.44699C2.94535 5.15366 3.58535 4.00033 4.51202 3.15366ZM12.3987 2.18699C12.132 1.94033 11.7187 1.94699 11.4654 2.20033C11.1987 2.46699 11.212 2.89366 11.4853 3.14699C12.4053 3.99366 13.052 5.14699 13.252 6.44033C13.2987 6.76033 13.5787 6.99366 13.9053 6.99366C14.312 6.99366 14.632 6.62699 14.5653 6.22033C14.312 4.64033 13.532 3.23366 12.3987 2.18699Z" fill="#837E7E"/>
  </g>
  <defs>
    <clipPath id="clip0_32556_5670">
      <rect width="16" height="16" fill="white"/>
    </clipPath>
  </defs>
</svg>