<svg width="21" height="20" viewBox="0 0 21 20" fill="none" xmlns="http://www.w3.org/2000/svg">
<g clip-path="url(#clip0_32556_5750)">
<path d="M13.832 9.16699C15.2154 9.16699 16.3237 8.05033 16.3237 6.66699C16.3237 5.28366 15.2154 4.16699 13.832 4.16699C12.4487 4.16699 11.332 5.28366 11.332 6.66699C11.332 8.05033 12.4487 9.16699 13.832 9.16699ZM7.16536 9.16699C8.5487 9.16699 9.65703 8.05033 9.65703 6.66699C9.65703 5.28366 8.5487 4.16699 7.16536 4.16699C5.78203 4.16699 4.66536 5.28366 4.66536 6.66699C4.66536 8.05033 5.78203 9.16699 7.16536 9.16699ZM7.16536 10.8337C5.2237 10.8337 1.33203 11.8087 1.33203 13.7503V15.8337H12.9987V13.7503C12.9987 11.8087 9.10703 10.8337 7.16536 10.8337ZM13.832 10.8337C13.5904 10.8337 13.3154 10.8503 13.0237 10.8753C13.9904 11.5753 14.6654 12.517 14.6654 13.7503V15.8337H19.6654V13.7503C19.6654 11.8087 15.7737 10.8337 13.832 10.8337Z" fill="#D1276B"/>
</g>
<defs>
<clipPath id="clip0_32556_5750">
<rect width="20" height="20" fill="white" transform="translate(0.5)"/>
</clipPath>
</defs>
</svg>
