<svg width="21" height="20" viewBox="0 0 21 20" fill="none" xmlns="http://www.w3.org/2000/svg">
<g id="people" clip-path="url(#clip0_32637_4377)">
<path id="Vector" d="M13.832 9.16602C15.2154 9.16602 16.3237 8.04935 16.3237 6.66602C16.3237 5.28268 15.2154 4.16602 13.832 4.16602C12.4487 4.16602 11.332 5.28268 11.332 6.66602C11.332 8.04935 12.4487 9.16602 13.832 9.16602ZM7.16536 9.16602C8.5487 9.16602 9.65703 8.04935 9.65703 6.66602C9.65703 5.28268 8.5487 4.16602 7.16536 4.16602C5.78203 4.16602 4.66536 5.28268 4.66536 6.66602C4.66536 8.04935 5.78203 9.16602 7.16536 9.16602ZM7.16536 10.8327C5.2237 10.8327 1.33203 11.8077 1.33203 13.7493V15.8327H12.9987V13.7493C12.9987 11.8077 9.10703 10.8327 7.16536 10.8327ZM13.832 10.8327C13.5904 10.8327 13.3154 10.8493 13.0237 10.8743C13.9904 11.5743 14.6654 12.516 14.6654 13.7493V15.8327H19.6654V13.7493C19.6654 11.8077 15.7737 10.8327 13.832 10.8327Z" fill="#ACB1B5"/>
</g>
<defs>
<clipPath id="clip0_32637_4377">
<rect width="20" height="20" fill="white" transform="translate(0.5)"/>
</clipPath>
</defs>
</svg>
