<svg xmlns="http://www.w3.org/2000/svg" width="15" height="18" viewBox="0 0 15 18" fill="none">
  <path d="M7.41086 0.126953C6.53229 0.126953 5.67346 0.390287 4.94296 0.883655C4.21246 1.37702 3.6431 2.07826 3.30689 2.8987C2.97068 3.71914 2.88271 4.62193 3.05411 5.49291C3.22551 6.36388 3.64858 7.16392 4.26982 7.79186C4.89106 8.4198 5.68256 8.84743 6.54425 9.02068C7.40593 9.19393 8.29909 9.10501 9.11078 8.76517C9.92247 8.42533 10.6162 7.84984 11.1043 7.11146C11.5924 6.37309 11.853 5.50499 11.853 4.61695C11.8517 3.42654 11.3832 2.28526 10.5505 1.44351C9.71769 0.601754 8.58857 0.128277 7.41086 0.126953V0.126953Z" fill="#928D8D"/>
  <path d="M12.9375 12.0385C12.3471 11.4257 11.6411 10.9387 10.8613 10.6063C10.0815 10.274 9.24375 10.103 8.39746 10.1035H6.4188C5.57268 10.1031 4.73507 10.2742 3.95546 10.6065C3.17584 10.9389 2.47003 11.4258 1.87973 12.0385C0.674286 13.2656 -0.00152871 14.9252 2.59663e-06 16.6545C2.59663e-06 16.7871 0.0521187 16.9143 0.144887 17.0081C0.237655 17.1018 0.363476 17.1545 0.494669 17.1545H14.3206C14.4518 17.1545 14.5776 17.1018 14.6704 17.0081C14.7632 16.9143 14.8153 16.7871 14.8153 16.6545C14.8173 14.9255 14.1422 13.266 12.9375 12.0385Z" fill="#928D8D"/>
</svg>