<svg xmlns="http://www.w3.org/2000/svg" width="24" height="25" viewBox="0 0 24 25" fill="none">
  <path d="M0 24.5011H10.9092V13.5918H0V24.5011ZM2.18171 15.7738H8.72729V22.3025H2.18171V15.7738Z" fill="#6C6C6C"/>
  <path d="M6.54508 17.9541H4.36328V20.1362H6.54508V17.9541Z" fill="#6C6C6C"/>
  <path d="M19.6355 22.3174H17.4531V24.4993H19.6355V22.3174Z" fill="#6C6C6C"/>
  <path d="M23.9987 22.3174H21.8164V24.4993H23.9987V22.3174Z" fill="#6C6C6C"/>
  <path d="M21.8173 15.7738H19.6356V13.5918H13.0898V24.5011H15.2718V17.9555H17.4533V20.1376H23.9991V13.5918H21.8173V15.7738Z" fill="#6C6C6C"/>
  <path d="M0 11.4095H10.9092V0.5H0V11.4095ZM2.18171 2.68171H8.72729V9.22729H2.18171V2.68171Z" fill="#6C6C6C"/>
  <path d="M6.54508 4.86426H4.36328V7.04624H6.54508V4.86426Z" fill="#6C6C6C"/>
  <path d="M13.0898 0.5V11.4095H23.9993V0.5H13.0898ZM21.8173 9.22729H15.2718V2.68171H21.8173V9.22729Z" fill="#6C6C6C"/>
  <path d="M19.6355 4.86426H17.4531V7.04624H19.6355V4.86426Z" fill="#6C6C6C"/>
</svg>