<svg xmlns="http://www.w3.org/2000/svg" width="6" height="21" viewBox="0 0 6 21" fill="none">
  <path d="M2.89911 13C4.2651 13 5.37245 11.8807 5.37245 10.5C5.37245 9.11929 4.2651 8 2.89911 8C1.53313 8 0.425781 9.11929 0.425781 10.5C0.425781 11.8807 1.53313 13 2.89911 13Z" fill="#979797"/>
  <path d="M2.89911 21C4.2651 21 5.37245 19.8807 5.37245 18.5C5.37245 17.1193 4.2651 16 2.89911 16C1.53313 16 0.425781 17.1193 0.425781 18.5C0.425781 19.8807 1.53313 21 2.89911 21Z" fill="#979797"/>
  <path d="M2.89911 5C4.2651 5 5.37245 3.88071 5.37245 2.5C5.37245 1.11929 4.2651 0 2.89911 0C1.53313 0 0.425781 1.11929 0.425781 2.5C0.425781 3.88071 1.53313 5 2.89911 5Z" fill="#979797"/>
</svg>